<svg width="32" height="32" viewBox="0 0 32 32" fill="none" xmlns="http://www.w3.org/2000/svg">
<path fill-rule="evenodd" clip-rule="evenodd" d="M16 32C24.8366 32 32 24.8366 32 16C32 7.16344 24.8366 0 16 0C7.16344 0 0 7.16344 0 16C0 24.8366 7.16344 32 16 32ZM13.092 15.9208C13.092 14.3645 14.3621 13.0945 15.9183 13.0945C17.4745 13.0945 18.7445 14.3645 18.7445 15.9208C18.7445 17.477 17.4745 18.7471 15.9183 18.7471C14.3621 18.7471 13.092 17.477 13.092 15.9208ZM24.3952 15.4927C24.395 15.6352 24.3949 15.7779 24.3949 15.9208C24.3949 16.0805 24.3951 16.2401 24.3953 16.3995C24.3968 17.4079 24.3983 18.4104 24.3397 19.4192C24.274 20.7761 23.9666 21.9783 22.9722 22.9727C21.9799 23.965 20.7757 24.2745 19.4187 24.3403C18.3931 24.398 17.3739 24.3969 16.3484 24.3957C16.2059 24.3956 16.0632 24.3954 15.9204 24.3954C15.7779 24.3954 15.6355 24.3956 15.4931 24.3957C14.469 24.3969 13.4496 24.398 12.4221 24.3403C11.0651 24.2745 9.86298 23.9671 8.8686 22.9727C7.87634 21.9804 7.56679 20.7761 7.50107 19.4192C7.44336 18.3935 7.44449 17.3727 7.44563 16.3482C7.44579 16.2058 7.44594 16.0633 7.44594 15.9208C7.44594 15.7782 7.44579 15.6358 7.44563 15.4934C7.44449 14.4693 7.44336 13.4499 7.50107 12.4224C7.56679 11.0654 7.87422 9.86325 8.8686 8.86885C9.86086 7.87658 11.0651 7.56703 12.4221 7.5013C13.4477 7.44359 14.4668 7.44472 15.4923 7.44586C15.6349 7.44601 15.7775 7.44617 15.9204 7.44617C16.063 7.44617 16.2054 7.44601 16.3477 7.44586C17.3718 7.44472 18.3912 7.44359 19.4187 7.5013C20.7757 7.56703 21.9778 7.87446 22.9722 8.86885C23.9645 9.86113 24.274 11.0654 24.3397 12.4224C24.3974 13.448 24.3963 14.4672 24.3952 15.4927ZM11.5697 15.9208C11.5697 18.3273 13.5118 20.2694 15.9183 20.2694C18.3247 20.2694 20.2668 18.3273 20.2668 15.9208C20.2668 13.5143 18.3247 11.5722 15.9183 11.5722C13.5118 11.5722 11.5697 13.5143 11.5697 15.9208ZM19.4293 11.3941C19.4293 11.9559 19.8831 12.4097 20.4449 12.4097C20.5783 12.4098 20.7105 12.3837 20.8338 12.3327C20.9571 12.2817 21.0691 12.2069 21.1634 12.1126C21.2578 12.0182 21.3326 11.9062 21.3835 11.7829C21.4345 11.6596 21.4607 11.5275 21.4605 11.3941C21.4605 10.8322 21.0068 10.3785 20.4449 10.3785C19.8831 10.3785 19.4293 10.8322 19.4293 11.3941Z" fill="white"/>
</svg>
