<svg width="44" height="42" viewBox="0 0 44 42" fill="none" xmlns="http://www.w3.org/2000/svg">
<rect x="0.0952148" y="0.385254" width="43.6998" height="41.5" rx="8" fill="#F7F7FF"/>
<path d="M21.8921 11.9853C21.257 11.9853 20.7421 12.5001 20.7421 13.1353V29.1353C20.7421 29.7704 21.257 30.2853 21.8921 30.2853H21.9981C22.6332 30.2853 23.1481 29.7704 23.1481 29.1353V13.1353C23.1481 12.5001 22.6332 11.9853 21.9981 11.9853H21.8921Z" fill="#6F6C90" stroke="#6F6C90" stroke-width="0.3" stroke-linecap="round"/>
<path d="M13.468 19.9853C12.8329 19.9853 12.318 20.5001 12.318 21.1353C12.318 21.7704 12.8329 22.2853 13.468 22.2853H30.4221C31.0573 22.2853 31.5721 21.7704 31.5721 21.1353C31.5721 20.5001 31.0573 19.9853 30.4221 19.9853H13.468Z" fill="#6F6C90" stroke="#6F6C90" stroke-width="0.3" stroke-linecap="round"/>
</svg>
