<svg width="35" height="35" viewBox="0 0 35 35" fill="none" xmlns="http://www.w3.org/2000/svg">
<path d="M0 10C0 4.47715 4.47715 0 10 0H25C30.5228 0 35 4.47715 35 10V25C35 30.5228 30.5228 35 25 35H10C4.47715 35 0 30.5228 0 25V10Z" fill="#4BCF51"/>
<path d="M7.52509 11.8984C8.1693 11.7289 8.78429 11.5088 9.4285 11.3392C10.0727 11.1697 10.6877 10.9495 11.3319 10.78C11.5129 10.7429 11.5343 10.6631 11.4973 10.4821C11.203 9.50513 10.938 8.57873 10.6438 7.60173C10.6068 7.42072 10.6282 7.34091 10.8092 7.30387C11.4028 7.16354 11.9166 7.00183 12.481 6.8109C12.662 6.77386 12.6912 6.82446 12.699 6.95486C12.964 7.88127 13.2582 8.85827 13.5232 9.78467C13.5525 9.83527 13.5817 9.88587 13.5895 10.0163C14.0527 9.88377 14.5665 9.72205 15.0297 9.58955C15.0803 9.56034 15.0725 9.42993 15.0939 9.35012C14.8659 8.60472 14.6671 7.90992 14.4898 7.1353L14.291 6.4405C14.2326 6.33931 14.254 6.2595 14.3844 6.25167C14.978 6.11134 15.5424 5.92041 16.1866 5.75086C16.2372 5.72165 16.2664 5.77225 16.317 5.74304C16.545 6.48844 16.7437 7.18324 16.9425 7.87804C17.0379 8.16024 17.1334 8.44244 17.1783 8.75385C17.2153 8.93486 17.2951 8.95624 17.4761 8.9192L19.584 8.71415C20.2653 8.72561 20.9543 8.86748 21.6006 9.16897C22.4942 9.66501 23.0122 10.4454 23.2772 11.3718C23.4467 12.016 23.5365 12.6388 23.3654 13.2773C23.2371 13.7561 22.9492 14.1922 22.632 14.5777C22.5814 14.6069 22.56 14.6867 22.4588 14.7451C22.7489 14.7801 23.0097 14.7644 23.2997 14.7994C24.1698 14.9042 24.8959 15.2271 25.5073 15.8186C25.9298 16.3167 26.2297 16.9531 26.3993 17.5973C26.6059 18.4225 26.7034 19.1758 26.5694 19.9952C26.3926 20.9743 25.8887 21.7375 25.1376 22.3061C24.1627 23.0713 23.0923 23.5544 21.9927 23.9868C21.8117 24.0239 21.7397 24.1329 21.7768 24.3139C22.0418 25.2403 22.336 26.2173 22.601 27.1437C22.6673 27.3753 22.6965 27.4259 22.3851 27.4708C21.8713 27.6325 21.2776 27.7728 20.7639 27.9345C20.5828 27.9716 20.5536 27.921 20.5458 27.7906C20.2516 26.8136 19.9574 25.8366 19.743 24.881C19.6845 24.7798 19.7059 24.6999 19.5755 24.7078C19.1123 24.8403 18.6491 24.9728 18.1353 25.1345C18.297 25.6483 18.4081 26.1913 18.5699 26.7051C18.7316 27.2189 18.8427 27.7619 19.0044 28.2757C19.0122 28.4061 19.0414 28.4567 18.8604 28.4938C18.2668 28.6341 17.7024 28.825 17.138 29.016C16.957 29.053 16.9278 29.0024 16.92 28.872C16.6258 27.895 16.3316 26.918 16.1171 25.9624C16.0879 25.9118 16.1093 25.832 16.0509 25.7308C14.7119 26.0991 13.3729 26.4674 11.9833 26.8649C11.9676 26.6041 11.9306 26.4231 11.9149 26.1623C11.8544 25.59 11.7939 25.0178 11.712 24.5254C11.6749 24.3444 11.7255 24.3152 11.8773 24.2275C12.2899 24.1242 12.7531 23.9917 13.1365 23.8379C13.5997 23.7053 13.7865 23.3277 13.6326 22.9443C12.8005 19.9841 11.9684 17.0239 11.0566 14.0423C10.9241 13.5791 10.4082 13.2697 9.86515 13.3809C9.32214 13.492 8.80834 13.6537 8.34513 13.7862C8.24394 13.8446 8.16413 13.8232 8.1563 13.6928C7.98676 13.0486 7.788 12.3538 7.61846 11.7096C7.50371 11.9783 7.50371 11.9783 7.52509 11.8984ZM17.321 22.9061C17.3716 22.8769 17.4514 22.8983 17.4514 22.8983C18.3778 22.6333 19.384 22.3897 20.2734 21.9437C20.9098 21.6437 21.4663 21.3224 21.906 20.7986C22.6921 19.94 22.3666 18.4414 21.3426 17.9532C20.8559 17.6945 20.3051 17.6752 19.7543 17.6559C18.5514 17.6757 17.372 18.0868 16.2432 18.4687C16.0622 18.5057 16.0914 18.5563 16.1285 18.7373C16.3194 19.3017 16.4305 19.8447 16.6214 20.4091C16.828 21.2343 17.0852 22.0303 17.321 22.9061ZM18.5915 15.2914C18.6927 15.233 18.9165 15.0363 19.0896 14.8688C19.9341 14.1114 19.7974 12.7062 18.7949 12.1381C18.279 11.8288 17.6483 11.7881 17.0761 11.8487C16.1925 11.9541 15.3965 12.2112 14.5207 12.447C14.3396 12.4841 14.3183 12.5639 14.3553 12.7449C14.7158 13.9535 15.047 15.1115 15.3569 16.3493C15.3647 16.4797 15.4445 16.5011 15.575 16.4933C15.8066 16.427 15.9876 16.39 16.2192 16.3237C17.0365 15.9867 17.7819 15.7588 18.5915 15.2914Z" fill="white"/>
</svg>
