<svg width="35" height="35" viewBox="0 0 35 35" fill="none" xmlns="http://www.w3.org/2000/svg">
<path d="M0 10C0 4.47715 4.47715 0 10 0H25C30.5228 0 35 4.47715 35 10V25C35 30.5228 30.5228 35 25 35H10C4.47715 35 0 30.5228 0 25V10Z" fill="#F5B300"/>
<path d="M11.3513 8.04639C11.994 8.22167 12.6367 8.33852 13.2793 8.51379C13.922 8.68906 14.5647 8.80591 15.2074 8.98119C15.3826 9.03961 15.4411 8.98119 15.4995 8.80591C15.7332 7.81269 15.9669 6.8779 16.2006 5.88468C16.259 5.70941 16.3174 5.65098 16.4927 5.70941C17.0769 5.88468 17.6028 6.00153 18.187 6.11838C18.3623 6.17681 18.3623 6.23523 18.3039 6.35208C18.0702 7.28687 17.8365 8.28009 17.6028 9.21489C17.6028 9.27331 17.6028 9.33173 17.5443 9.44858C18.0117 9.56543 18.5376 9.68228 19.005 9.79913C19.0634 9.79913 19.1218 9.68228 19.1802 9.62386C19.3555 8.86434 19.5308 8.16324 19.7645 7.40372C19.8229 7.17002 19.8813 6.93633 19.9397 6.70263C19.9397 6.58578 19.9982 6.52735 20.115 6.58578C20.6993 6.76105 21.2835 6.8779 21.9262 7.05318C21.9846 7.05318 21.9846 7.1116 22.043 7.1116C21.8678 7.87112 21.6925 8.57222 21.5172 9.27331C21.4588 9.56543 21.4004 9.85756 21.2835 10.1497C21.2251 10.325 21.2835 10.3834 21.4588 10.4418C22.1015 10.7339 22.7441 11.026 23.3868 11.3182C23.971 11.6687 24.4969 12.1361 24.9058 12.7204C25.4317 13.5967 25.4901 14.5315 25.2564 15.4663C25.0811 16.109 24.8474 16.6932 24.38 17.1606C24.0295 17.5112 23.5621 17.7449 23.0947 17.9202C23.0363 17.9202 22.9778 17.9786 22.861 17.9786C23.0947 18.1539 23.3284 18.2707 23.5621 18.446C24.2632 18.9718 24.7306 19.6145 24.9643 20.4324C25.0811 21.0751 25.0227 21.7762 24.8474 22.4188C24.6137 23.2368 24.3216 23.9379 23.7958 24.5806C23.1531 25.3401 22.3352 25.7491 21.4004 25.8659C20.1734 26.0412 19.005 25.9243 17.8365 25.7491C17.6612 25.6906 17.5443 25.7491 17.4859 25.9243C17.2522 26.8591 17.0185 27.8523 16.7848 28.7871C16.7264 29.0208 16.7264 29.0793 16.4343 28.9624C15.9085 28.8456 15.3242 28.6703 14.7984 28.5534C14.6231 28.495 14.6231 28.4366 14.6815 28.3197C14.9152 27.3265 15.1489 26.3333 15.4411 25.3985C15.4411 25.2817 15.4995 25.2232 15.3826 25.1648C14.9152 25.048 14.4478 24.9311 13.922 24.8143C13.8052 25.3401 13.6299 25.8659 13.513 26.3917C13.3962 26.9175 13.2209 27.4434 13.1041 27.9692C13.0456 28.086 13.0456 28.1445 12.8704 28.086C12.2861 27.9108 11.7019 27.7939 11.1176 27.6771C10.9424 27.6186 10.9424 27.5602 11.0008 27.4434C11.2345 26.4501 11.4682 25.4569 11.7603 24.5221C11.7603 24.4637 11.8187 24.4053 11.8187 24.2884C10.475 23.9379 9.13119 23.5873 7.729 23.2368C7.84585 23.0031 7.90428 22.8278 8.02113 22.5941C8.25483 22.0683 8.48852 21.5425 8.6638 21.0751C8.72222 20.8998 8.78065 20.8998 8.95592 20.8998C9.36489 21.0167 9.83229 21.1335 10.2413 21.1919C10.7087 21.3088 11.0592 21.0751 11.1176 20.6661C11.8772 17.6865 12.6367 14.7068 13.3378 11.6687C13.4546 11.2013 13.1625 10.6755 12.6367 10.5002C12.1108 10.325 11.585 10.2081 11.1176 10.0913C11.0008 10.0913 10.9424 10.0328 11.0008 9.91598C11.1761 9.27331 11.3513 8.57222 11.5266 7.92954C11.2929 8.10482 11.2929 8.10482 11.3513 8.04639ZM14.331 22.4773C14.3894 22.4773 14.4478 22.5357 14.4478 22.5357C15.3826 22.7694 16.3758 23.0615 17.3691 23.1199C18.0702 23.1784 18.7128 23.1784 19.3555 22.9447C20.4656 22.5941 20.933 21.1335 20.2903 20.1987C19.9982 19.7313 19.5308 19.4392 19.0634 19.1471C18.0117 18.5628 16.7848 18.3291 15.6163 18.0954C15.4411 18.037 15.4411 18.0954 15.3826 18.2707C15.2658 18.8549 15.0905 19.3808 14.9737 19.965C14.74 20.783 14.5647 21.6009 14.331 22.4773ZM19.2387 16.518C19.3555 16.518 19.6476 16.4595 19.8813 16.4011C20.9914 16.1674 21.5756 14.8821 20.9914 13.8889C20.6993 13.363 20.1734 13.0125 19.6476 12.7788C18.8297 12.4282 18.0117 12.253 17.1354 12.0193C16.9601 11.9608 16.9017 12.0193 16.8432 12.1945C16.5511 13.4215 16.259 14.59 15.9085 15.8169C15.85 15.9337 15.9085 15.9921 16.0253 16.0506C16.259 16.109 16.4343 16.1674 16.668 16.2258C17.5443 16.3427 18.3039 16.518 19.2387 16.518Z" fill="white"/>
</svg>
