<svg width="35" height="35" viewBox="0 0 35 35" fill="none" xmlns="http://www.w3.org/2000/svg">
<path d="M0 10C0 4.47715 4.47715 0 10 0H25C30.5228 0 35 4.47715 35 10V25C35 30.5228 30.5228 35 25 35H10C4.47715 35 0 30.5228 0 25V10Z" fill="#008DE4"/>
<path d="M20.533 7.875H12.0395L11.3351 11.8105L19.0016 11.8196C22.778 11.8196 23.8914 13.192 23.8596 15.4642C23.8414 16.6276 23.337 18.5998 23.1188 19.2406C22.5371 20.9448 21.342 22.8852 16.8611 22.8807L9.40828 22.8761L8.70389 26.8162H17.1793C20.1695 26.8162 21.4374 26.4662 22.7871 25.8482C25.7728 24.4622 27.5496 21.5174 28.2631 17.6728C29.322 11.9468 28.0041 7.875 20.533 7.875Z" fill="white"/>
<path d="M8.37214 15.3688C6.14537 15.3688 5.82726 16.8184 5.61822 17.6955C5.34101 18.8407 5.25012 19.3088 5.25012 19.3088H13.9481C16.1749 19.3088 16.493 17.8591 16.7021 16.982C16.9793 15.8368 17.0702 15.3688 17.0702 15.3688H8.37214Z" fill="white"/>
</svg>
