<svg width="35" height="35" viewBox="0 0 35 35" fill="none" xmlns="http://www.w3.org/2000/svg">
<path d="M0 10C0 4.47715 4.47715 0 10 0H25C30.5228 0 35 4.47715 35 10V25C35 30.5228 30.5228 35 25 35H10C4.47715 35 0 30.5228 0 25V10Z" fill="#BA9F33"/>
<path d="M17.5003 30.0416C24.7489 30.0416 30.6251 24.1654 30.6251 16.9168C30.6251 9.66816 24.7489 3.79199 17.5003 3.79199C10.2517 3.79199 4.37549 9.66816 4.37549 16.9168C4.37549 24.1654 10.2517 30.0416 17.5003 30.0416Z" fill="#BA9F33"/>
<path fill-rule="evenodd" clip-rule="evenodd" d="M9.70508 15.4376C9.62663 15.366 9.54375 15.2942 9.46751 15.2225C9.39128 15.1509 9.31297 15.0791 9.23452 15.0074L9.00138 14.7858C8.96326 14.7477 8.92293 14.7142 8.88481 14.6759C8.84669 14.6423 8.80193 14.6042 8.76381 14.5705C8.45444 14.277 8.14329 13.9834 7.8382 13.6897C8.15422 13.9788 8.4636 14.2659 8.77962 14.5593L8.88939 14.6692C8.92751 14.7072 8.96784 14.7409 9.00596 14.779L9.23895 14.9941C9.3174 15.0658 9.39364 15.1376 9.47209 15.2157C9.55054 15.2939 9.62678 15.3658 9.70523 15.4374L9.70508 15.4376ZM5.59915 15.3933C5.59915 15.3933 6.72421 15.5097 7.27337 15.5882C7.78206 15.66 9.3734 15.9042 9.3734 15.9042L5.59915 15.3933ZM5.59915 15.3933C5.91517 15.4202 6.23119 15.4538 6.54722 15.4874C6.70855 15.5031 6.86324 15.521 7.01793 15.5366L7.25535 15.5637C7.3338 15.5748 7.41004 15.586 7.48849 15.5972L8.42991 15.7473L8.90047 15.8258C9.05516 15.8527 9.20985 15.8819 9.37118 15.9088C9.2165 15.8931 9.05516 15.8707 8.90047 15.8482L8.42991 15.781L7.48849 15.6421C7.41004 15.6309 7.3338 15.6151 7.25535 15.604L7.01778 15.5767C6.86309 15.561 6.70176 15.5386 6.54707 15.5205C6.23105 15.4826 5.91502 15.4421 5.599 15.3929L5.59915 15.3933ZM9.26141 16.1973C9.26141 16.1973 8.06011 16.5023 7.6544 16.6189C7.2555 16.7286 6.0474 17.0962 6.0474 17.0962L9.26126 16.1975L9.26141 16.1973Z" fill="#CFB66C"/>
<path fill-rule="evenodd" clip-rule="evenodd" d="M9.26173 16.1973C8.99506 16.2757 8.72986 16.352 8.45934 16.4238L7.65695 16.6389C7.39027 16.7173 7.12507 16.7936 6.85913 16.872L6.46022 16.9818C6.32799 17.0199 6.19355 17.0535 6.05688 17.0917C6.18897 17.0474 6.32356 17.0021 6.45579 16.9639L6.8547 16.8363C7.12138 16.7532 7.38658 16.6748 7.65251 16.5919C7.92362 16.5247 8.19045 16.4529 8.46156 16.3879C8.71922 16.3229 8.99048 16.258 9.26173 16.1974V16.1973ZM6.216 17.8358C6.34809 17.7865 7.87221 17.0761 8.22635 16.9102C8.40364 16.8271 8.91897 16.6442 8.91897 16.6442L6.216 17.8358Z" fill="#CFB66C"/>
<path fill-rule="evenodd" clip-rule="evenodd" d="M6.21597 17.8358C6.33239 17.7915 6.44231 17.7373 6.5543 17.6857L6.88598 17.531L7.55172 17.2106C7.77333 17.1052 7.98874 16.989 8.2173 16.89C8.33387 16.8408 8.45044 16.8004 8.56686 16.7623L8.74415 16.7063C8.80458 16.6907 8.86072 16.6726 8.92145 16.657C8.69983 16.7623 8.46654 16.852 8.24463 16.955C8.02302 17.0649 7.79638 17.1546 7.56767 17.2531L6.89086 17.5511C6.66363 17.6432 6.44202 17.7417 6.21582 17.8358H6.21597ZM6.36371 18.4563C6.36371 18.4563 7.74423 17.6473 8.21937 17.3873C8.46817 17.2484 9.27278 16.8493 9.27278 16.8493L6.36371 18.4563Z" fill="#CFB66C"/>
<path fill-rule="evenodd" clip-rule="evenodd" d="M6.36365 18.4567C6.59664 18.3132 6.83421 18.1675 7.07178 18.0196L7.42636 17.8044C7.54736 17.7327 7.66393 17.6655 7.78729 17.5938C7.9083 17.522 8.02486 17.4504 8.14808 17.3831C8.20674 17.3469 8.2682 17.3155 8.33187 17.289L8.5201 17.1949C8.7689 17.0739 9.01769 16.9506 9.27994 16.8452C9.04237 16.9955 8.798 17.1233 8.55378 17.2553C8.43278 17.3226 8.30942 17.3831 8.18842 17.4504C8.06741 17.5176 7.95085 17.5894 7.82748 17.6544C7.70648 17.7261 7.58991 17.7933 7.46669 17.8583L7.10133 18.0577L6.36394 18.4567H6.36365ZM9.26147 17.0266C9.26147 17.0266 8.40308 17.6856 8.12518 17.8963C7.84728 18.1069 7.02923 18.6987 7.02923 18.6987L9.26147 17.0266Z" fill="#CFB66C"/>
<path fill-rule="evenodd" clip-rule="evenodd" d="M14.1879 22.3406L13.7487 21.5091L14.0041 20.4691L15.8262 19.7654L15.0507 18.1742L15.434 16.5672L16.1535 15.1282L18.3769 14.7786L20.0107 13.2209L23.5385 13.4876L24.231 17.2597L22.8974 22.0089L22.1377 24.4676L19.0581 24.5842L17.6283 23.5936L15.954 22.8941L14.1879 22.3406Z" fill="#E2CC85"/>
<path fill-rule="evenodd" clip-rule="evenodd" d="M19.5892 22.3137C19.5892 22.3137 19.1632 22.5087 18.4368 22.4638C18.2266 22.1815 16.7542 22.0492 16.7542 22.0492C16.7542 22.0492 16.5704 21.9932 16.2453 22.1277C15.9182 22.2607 15.6089 22.2443 15.3197 22.3159C15.0306 22.3876 14.7435 22.0111 14.5219 21.9327C14.3003 21.8498 14.0064 21.6503 14.0064 21.6503L13.3859 21.5898L12.1399 21.063L10.1603 19.0908L9.62234 19.933L9.45642 20.9751L10.0549 22.2101L11.6664 23.6781L14.8085 24.4759L16.671 23.9272L19.0041 22.941L19.5892 22.3135V22.3137Z" fill="#F1D789"/>
<path fill-rule="evenodd" clip-rule="evenodd" d="M8.42565 15.3434L8.82456 14.1354L9.29986 13.3553L10.8305 13.2275L10.371 14.5679L9.09139 16.845L9.62254 18.8778L8.68125 19.3484L8.39197 18.9047L8.15897 17.8872L8.14331 16.7441L8.42565 15.3434Z" fill="#F4ECB4"/>
<path fill-rule="evenodd" clip-rule="evenodd" d="M10.1424 22.2308L9.84887 21.8207C9.84887 21.8207 9.77041 21.6256 9.81533 21.4553C9.85965 21.2827 9.8533 21.2715 9.83099 21.2065C9.80868 21.1415 9.62031 20.9174 9.63154 20.7246C9.64262 20.5295 9.61588 20.4645 9.75919 20.31C9.90929 20.1599 9.86453 19.8999 9.86453 19.8999L10.0595 20.0209L10.1039 19.9536C10.1039 19.9536 10.1755 20.0096 10.1755 20.0971C10.1912 19.9761 10.1262 19.4157 10.2741 19.288C10.422 19.1604 10.6842 19.8864 10.6842 19.8864L10.5229 18.833L10.1082 17.7528L9.37077 16.7667L9.32645 15.6796V15.5854C9.32645 15.5854 8.98797 16.1055 8.89385 16.5162C8.82663 16.7986 8.98797 17.1415 8.95443 17.5472C8.92739 17.9507 8.89385 17.9192 8.9924 18.0791C9.09094 18.2389 9.33088 18.5676 9.23677 18.8052C9.15388 19.0093 8.8714 18.8658 8.8714 18.8658C8.8714 18.8658 8.8154 19.0316 8.73917 19.0921C8.71228 18.9936 8.68317 18.9308 8.62939 18.8705C8.62481 18.9086 8.61373 18.9602 8.61373 18.9602C8.61373 18.9602 8.56439 18.8055 8.51504 18.6105C8.44796 18.3506 8.37616 18.0077 8.31115 17.8239C8.28426 17.9293 8.21704 18.2497 8.21704 18.2497L8.25516 18.7429L8.43895 19.4197L8.61624 19.8629L8.78881 20.4053L8.93877 20.7696L9.05977 21.0475L9.16511 21.6729L9.67379 22.2107L9.94505 22.3319L10.1421 22.2309L10.1424 22.2308Z" fill="#F3E19D"/>
<path fill-rule="evenodd" clip-rule="evenodd" d="M8.69189 14.3573C8.69189 14.3573 8.32651 14.9779 8.22132 15.6034C8.11613 16.229 8.02187 16.89 8.08835 17.7416C8.15557 18.6001 8.28337 19.1267 8.3865 19.5032C8.56379 20.1286 9.02298 20.9983 9.02298 20.9983L9.03864 20.9646C8.96146 20.8183 8.89986 20.6643 8.85485 20.5051C8.79427 20.2675 8.77182 19.9852 8.71582 19.8574C8.66647 19.7297 8.58359 19.6198 8.54326 19.4629C8.50514 19.3128 8.49893 19.0752 8.38192 18.8982C8.33257 18.8264 8.272 18.6382 8.25412 18.45C8.23166 18.1675 8.26535 17.8515 8.23846 17.5916C8.18911 17.159 8.15557 16.8654 8.20034 16.6389C8.24511 16.4125 8.4784 15.7695 8.62186 15.2584C8.71597 14.9312 8.65983 14.6555 8.83239 14.3708C9.00496 14.0885 9.11045 13.8397 9.14842 13.6671C9.19274 13.5102 8.6913 14.3573 8.6913 14.3573H8.69189Z" fill="#F2E8B0"/>
<path fill-rule="evenodd" clip-rule="evenodd" d="M10.4248 14.1084C10.4248 14.1084 10.2366 14.1645 10.1469 14.2631C10.0572 14.3572 10.0191 14.4356 9.89809 14.5948C9.77708 14.7539 9.77029 14.8839 9.67159 15.0833C9.57305 15.2784 9.35557 15.5719 9.32868 15.6773C9.30179 15.7826 9.25702 16.2756 9.20102 16.5087C9.15168 16.7419 9.25702 17.0288 9.25702 17.0288L9.38467 17.0018C9.38467 17.0018 9.38467 17.1677 9.51247 17.2798C9.64012 17.3896 9.66258 16.9076 9.66258 16.9076L10.1399 15.2962L10.8593 14.8077L10.9378 14.4132L10.4245 14.1084H10.4248Z" fill="#F5EEC0"/>
<path fill-rule="evenodd" clip-rule="evenodd" d="M10.7742 14.8393C10.7742 14.8393 10.4357 14.8617 10.2699 14.9828C10.2027 15.032 10.1758 15.0723 10.1042 15.1329C9.97195 15.2427 9.83736 15.3436 9.7725 15.4875C9.7007 15.6308 9.62225 15.8483 9.56847 16.2584C9.54602 16.431 9.54602 16.5901 9.53036 16.7291C9.5079 16.9174 9.47436 17.0675 9.49224 17.1724C9.5147 17.3875 9.7366 17.4996 9.75817 17.7438L10.2176 17.5108L10.6502 15.8051L11.5692 15.2289L11.0491 14.6462L10.7736 14.8383L10.7742 14.8393Z" fill="#E6DB9D"/>
<path fill-rule="evenodd" clip-rule="evenodd" d="M8.35037 26.3248C8.35229 26.308 8.35421 26.2911 8.35613 26.2739C8.42321 25.6977 8.43458 25.2609 8.48378 24.9875C8.55544 24.5998 8.60478 24.4556 8.59356 24.3105C8.57789 24.0775 8.56002 23.9072 8.58247 23.7278C8.61601 23.4902 8.84915 23.2079 8.8425 23.0129C8.83792 22.8582 8.75947 22.7574 8.69225 22.6633C8.62502 22.5692 8.57125 22.4907 8.57125 22.4907C8.57125 22.4907 9.03073 22.1747 9.0263 20.9016C9.03568 20.9043 9.04471 20.908 9.05319 20.9128L9.27953 21.556L9.43422 21.7442L10.0282 22.8514L10.7924 23.5933L11.9219 24.353L12.6302 25.1238L12.7019 27.1791L11.7763 28.3804L11.6247 28.6549C10.4204 28.0503 9.31602 27.2644 8.35022 26.3247L8.35037 26.3248Z" fill="#E5CB7A"/>
<path fill-rule="evenodd" clip-rule="evenodd" d="M11.178 28.291C11.178 28.291 11.1936 28.0356 11.4043 27.8697C11.438 27.9257 11.4603 27.9796 11.4537 28.0198C11.4918 27.9527 11.7585 27.5223 12.3614 27.4102C12.9643 27.3004 13.11 26.8612 13.11 26.8612L14.3896 25.698L15.8532 24.351L17.6327 23.7256L18.4644 23.5216C18.4644 23.5216 18.48 23.5822 18.4487 23.7166C18.6032 23.7055 18.9462 23.6271 19.3025 23.5015C19.446 23.4455 19.5806 23.4231 19.6522 23.4971C19.7576 23.5956 19.7732 23.8288 19.7799 23.9676C19.9524 23.9295 20.1519 23.7637 20.3118 23.7794C20.5673 23.8063 20.7937 24.1067 21.0537 24.1067C21.3966 24.1067 21.5512 23.896 21.7911 23.7301C21.9346 23.6315 22.1407 23.5084 22.2572 23.4253C22.5351 23.2212 25.4757 22.3225 25.4757 22.3225L26.5066 22.3897L26.6725 23.4969L26.5839 26.3912C26.573 26.4017 26.562 26.4126 26.5509 26.4231L21.8633 28.8714L15.3656 29.8675C13.9101 29.6297 12.5055 29.1465 11.2117 28.4386L11.1784 28.2909L11.178 28.291Z" fill="#D8C173"/>
<path fill-rule="evenodd" clip-rule="evenodd" d="M8.74451 26.6931C8.83685 26.5 8.91988 26.3385 8.9345 26.2808C8.94603 26.3972 8.96716 26.6526 9.00971 26.9242C8.92037 26.8482 8.83197 26.7712 8.74451 26.693V26.6931Z" fill="#F1D789"/>
<path fill-rule="evenodd" clip-rule="evenodd" d="M13.4907 29.4169L14.331 29.1831L14.4027 29.2056C14.4027 29.2056 14.4408 29.228 14.4408 29.3041C14.5461 29.2437 14.6358 29.2548 14.7008 29.2146C14.7344 29.2863 14.7679 29.5238 14.9159 29.5529C15.0705 29.5866 15.2364 29.4857 15.4045 29.3581C15.5703 29.2258 15.7591 29.0599 15.902 28.9927C15.9544 29.0891 16.0008 29.1886 16.041 29.2907C16.2292 29.1406 16.5565 28.531 17.0226 28.5421C17.1574 28.2237 17.3824 27.9518 17.67 27.7599C18.1026 27.4663 18.3738 27.4439 18.7122 27.4708C18.8467 27.2961 19.0123 27.148 19.2008 27.0337C19.2568 27.0562 19.4115 27.1503 19.6043 27.0606C19.7993 26.9711 20.0189 26.6236 20.308 26.5788C20.4638 26.5574 20.6223 26.5907 20.7563 26.673C20.7563 26.673 21.5984 25.8369 22.1795 25.559C22.157 25.4917 22.1123 25.2385 22.7935 24.6781C22.8316 24.7118 22.8048 24.8059 22.8316 24.8111C22.8427 24.8111 23.0089 24.7394 23.2193 24.5779C23.4794 24.3831 23.7908 24.179 23.979 24.123C24.3336 24.0177 24.7098 24.2328 24.7098 24.2328C24.7418 24.2104 24.7774 24.1937 24.8151 24.1835C24.9046 24.1678 24.9697 24.1566 25.019 24.1391C25.0146 24.2557 25.0796 24.4552 25.019 24.6277C25.0892 24.6672 25.1635 24.6988 25.2406 24.7218C25.2026 24.8047 25.1196 25.0154 24.9807 25.1163C25.0972 25.1723 25.1128 25.2373 25.2787 25.2936C25.2115 25.3877 25.1014 25.5492 25.0524 25.6482C25.003 25.7535 24.8259 26.1906 24.7474 26.3563C24.6646 26.5223 24.5526 26.8271 24.4986 26.8882C24.4447 26.9494 24.2498 27.2087 24.0997 27.3363C24.2327 27.287 24.7767 27.1212 25.0075 27.0584C24.9388 27.1592 24.5905 27.6758 24.2558 28.1727C22.6528 29.1335 20.8635 29.7416 19.007 29.9565C17.1506 30.1714 15.2697 29.9882 13.4896 29.4191L13.4907 29.4169Z" fill="#E0CD81"/>
<path fill-rule="evenodd" clip-rule="evenodd" d="M10.8295 14.7786C10.8295 14.7786 10.6346 14.7786 10.5965 14.8055C10.5583 14.8324 10.7915 14.8885 10.8632 14.9154C10.9348 14.9423 11.0895 15.0655 11.1298 15.1642C11.168 15.2583 12.5306 15.8073 12.5306 15.8073L13.4944 15.758L13.8267 15.299L13.1946 14.7454L13.6378 13.4387L13.0507 13.5328L11.6387 14.375L10.9304 14.6462L10.8295 14.7786Z" fill="#DFC57C"/>
<path fill-rule="evenodd" clip-rule="evenodd" d="M12.9461 15.2111C12.96 15.2337 12.9796 15.2522 13.003 15.2647C13.0263 15.2773 13.0525 15.2835 13.079 15.2828C13.2785 15.2828 13.4621 15.3321 13.5384 15.4329C13.6662 15.5943 14.0203 16.1098 14.0203 16.1098L14.8675 16.4146L14.9221 15.4171L13.9965 14.7739L12.9431 15.1616V15.211H12.9455L12.9461 15.2111Z" fill="#E5CC7C"/>
<path fill-rule="evenodd" clip-rule="evenodd" d="M12.7799 15.5809C12.7799 15.5809 12.9344 15.5922 13.1295 15.5204C13.3245 15.4486 13.6449 15.294 13.784 15.3546C13.9788 15.4375 13.9385 15.6975 14.1493 15.9308C14.277 16.0743 14.5101 16.0698 14.6424 16.2245C14.7746 16.3792 15.2295 16.3074 15.2295 16.3074L15.4021 17.2382L14.7096 18.1258L14.4831 19.2284H13.5467L12.6913 18.8891L12.2699 17.8696L12.4806 16.8387L12.7799 15.5809Z" fill="#D2C281"/>
<path fill-rule="evenodd" clip-rule="evenodd" d="M14.5915 15.6257C14.6148 15.6329 14.6389 15.6367 14.6632 15.637C14.6363 15.6594 14.5802 15.7086 14.6026 15.8364C14.6251 15.9642 14.6967 16.1255 14.6363 16.2241C14.6845 16.2768 14.7205 16.3396 14.7416 16.4079C14.7798 16.5178 14.791 16.6186 15.0396 16.6344C15.0038 16.6565 14.9707 16.6828 14.9411 16.7128C14.9411 16.7128 15.1137 16.8629 15.2011 17.0018C15.2907 16.9979 15.5282 16.9241 15.5282 16.9241L15.5776 16.9578L15.6829 16.9134C15.6829 16.9134 15.5844 16.8753 15.656 16.6355C15.7233 16.4249 15.7838 16.4361 15.789 16.4204C15.7942 16.4048 15.8383 16.1829 15.8383 16.0932C15.8719 15.9768 15.8988 15.6226 15.8988 15.6226L15.8271 14.8405L15.4238 14.5961L15.0958 14.2795L14.7864 14.8622L14.5827 15.0654L14.567 15.5696L14.5915 15.6257Z" fill="#E2C270"/>
<path fill-rule="evenodd" clip-rule="evenodd" d="M15.5618 14.9714C15.5618 14.9714 15.6334 15.1753 15.6605 15.3322C15.67 15.3017 15.6753 15.2701 15.6761 15.2381C15.6761 15.2381 15.7321 15.5475 15.7432 15.6753C15.7657 15.6707 15.7875 15.6641 15.7925 15.6864C15.7976 15.7087 15.8487 15.9576 15.8369 16.0965C15.9302 15.9425 16.0593 15.8134 16.2133 15.7201C16.303 15.6639 16.4083 15.6035 16.5183 15.5989C16.6908 15.5945 16.8163 15.7088 17.0225 15.7088C17.52 15.7088 17.9706 15.3435 18.3023 15.2315C18.5465 15.1484 18.7572 15.088 18.9051 14.9534C18.9769 14.893 19.1047 14.7585 19.2211 14.5589C19.3758 14.293 19.5371 14.0615 19.6986 14.0324C19.6255 14.0458 19.5512 14.0511 19.477 14.048C19.477 14.048 19.5263 13.9987 19.6099 13.9315C19.6936 13.8643 19.7937 13.7814 19.937 13.7814C20.1926 13.7814 20.3203 13.8193 20.4637 13.8193C20.6072 13.8149 20.6901 13.7814 20.6901 13.7814C20.6901 13.7814 20.8403 13.8867 21.1787 13.8867C21.5172 13.8911 21.7435 13.9202 21.9206 13.9361C22.0978 13.9519 22.6916 13.8867 22.8619 13.8917C22.973 13.896 23.082 13.9227 23.1825 13.9702L22.6334 12.3746L20.6607 10.6504L19.4863 11.4819L17.6797 13.2883L15.9316 13.9361L15.5662 14.3462V14.9714H15.5618Z" fill="#CCB360"/>
<path fill-rule="evenodd" clip-rule="evenodd" d="M19.4841 14.057C19.4841 14.057 19.5334 14.0078 19.6162 13.9405C19.6989 13.8733 19.8001 13.7903 19.9434 13.7903C20.1989 13.7903 20.3267 13.8284 20.4701 13.8284C20.6136 13.824 20.6965 13.7903 20.6965 13.7903C20.6965 13.7903 20.8469 13.8955 21.1851 13.8955C21.5236 13.8999 21.7499 13.929 21.9271 13.9447C22.1042 13.9603 22.698 13.8955 22.8683 13.9004C22.9794 13.9045 23.0884 13.9312 23.1888 13.9788L22.94 13.2593L22.651 12.7103L21.8262 11.807L20.8287 11.2198C20.8243 11.2154 20.4858 11.1257 20.4858 11.1257L19.5893 11.6681L18.7758 13.7727L18.7601 14.2159L19.2867 14.4647C19.4189 14.2431 19.5648 14.0658 19.7014 14.0434C19.5781 14.0568 19.4839 14.0568 19.4839 14.0568L19.4841 14.057Z" fill="#D5B457"/>
<path fill-rule="evenodd" clip-rule="evenodd" d="M19.4726 14.2071C19.3942 14.2115 19.3293 14.1959 19.3113 14.1399C19.2441 13.9516 19.1903 13.9248 19.134 13.9248C19.0777 13.9248 19.0018 14.0458 18.9567 14.0568C18.9117 14.0679 18.8582 13.918 18.8582 13.918L18.8089 13.8955C18.8089 13.8955 18.5197 14.0837 18.3158 14.3056C18.112 14.5276 17.7779 14.9042 17.6278 14.9712C17.4777 15.0383 16.9621 15.0609 16.7857 15.099C16.6093 15.1371 16.4137 15.2649 16.3868 15.294C16.3599 15.3232 16.4654 15.3545 16.4811 15.3836C16.4967 15.4105 16.3084 15.3992 16.2927 15.4279C16.2816 15.4504 16.337 15.578 16.3645 15.643C16.4126 15.6191 16.4654 15.6061 16.519 15.6049C16.6916 15.6005 16.8172 15.7148 17.0233 15.7148C17.5209 15.7148 17.9713 15.3494 18.303 15.2373C18.5474 15.1544 18.758 15.0939 18.9059 14.9594C18.9776 14.899 19.1054 14.7644 19.2219 14.5649C19.307 14.4283 19.3901 14.3005 19.4731 14.2064L19.4726 14.2071Z" fill="#D2B257"/>
<path fill-rule="evenodd" clip-rule="evenodd" d="M12.3365 25.2992C12.3365 25.2992 12.2921 25.1333 11.8814 24.7053C11.7648 24.5843 11.6932 24.4837 11.6147 24.4117C11.4197 24.2278 11.3054 24.1786 11.1665 24.0732C10.8617 23.8469 10.53 23.8469 10.2745 23.569C10.0191 23.2911 9.72139 22.7601 9.51455 22.2174C9.31066 21.675 9.25452 21.5025 9.25452 21.4868C9.25452 21.4711 9.31066 21.3658 9.38232 21.3815C9.45397 21.3971 9.45397 21.536 9.472 21.5697C9.5077 21.6247 9.54819 21.6764 9.593 21.7242C9.69834 21.8454 9.84845 21.9902 9.92469 22.2062C9.90902 22.0224 9.84623 21.8185 9.84623 21.8185C9.84623 21.8185 10.2407 22.0673 10.5768 22.3272C10.9153 22.5872 11.0542 22.6769 11.153 22.8427C11.2519 23.0084 11.4847 23.4456 11.5963 23.5734C11.7078 23.7012 13.2362 24.183 13.2362 24.183L13.9633 24.7251L14.3242 25.5163L14.0417 25.9595L13.4994 26.0761L12.6185 25.6816L12.3365 25.2991V25.2992Z" fill="#D2B159"/>
<path fill-rule="evenodd" clip-rule="evenodd" d="M10.3799 22.5737C10.3799 22.5737 10.5637 22.8673 11.0119 23.1452C11.4154 23.3896 12.0541 23.6115 12.6235 23.7437C12.9506 23.8222 13.2778 23.8826 13.5714 23.8872C14.3626 23.8983 14.9072 23.6721 15.5819 23.598C15.9473 23.5599 16.3955 23.5308 16.8616 23.4208C17.46 23.2773 17.8141 23.1158 18.2961 22.8889C18.6456 22.7275 18.9662 22.6065 19.2261 22.4519C19.5915 22.2367 19.8581 21.9969 20.1675 21.9253C20.1294 22.0306 20.0891 22.2189 19.7843 22.4139C19.9456 22.4093 20.1675 22.3982 20.1675 22.3982C20.1675 22.3982 19.9524 22.5259 19.5736 22.8128C19.3405 22.9901 19.0312 23.2901 18.7152 23.4896C18.5112 23.6174 18.2893 23.7112 18.1436 23.7877C17.789 23.9828 17.646 24.0813 17.413 24.3196C17.4959 24.3152 17.5027 24.3196 17.5027 24.3196C17.5027 24.3196 17.209 24.3577 16.9984 24.4697C16.9541 24.4697 16.8773 24.4541 16.7428 24.4922C16.6375 24.5257 16.4985 24.6021 16.3552 24.6423C16.1511 24.7029 16.0841 24.676 16.0841 24.676L16.1176 24.7432C16.1176 24.7432 15.8517 24.7386 15.763 24.7476C15.7787 24.7521 15.7743 24.7589 15.7743 24.7589C15.7587 24.7615 15.7437 24.7668 15.7299 24.7745C15.6873 24.8022 15.6403 24.8226 15.5911 24.835C15.5642 24.8394 15.5417 24.8394 15.508 24.8462C15.5192 24.8731 15.6067 25.0235 15.647 25.1121C15.6135 25.1346 15.1091 25.5156 15.1091 25.5156C15.1248 25.5402 15.1375 25.5665 15.1472 25.5941C15.1629 25.6433 15.1697 25.7151 15.1853 25.7486C15.2233 25.8158 15.2458 25.827 15.2458 25.827C15.2458 25.827 15.1853 25.8383 15.0799 25.8652C14.9903 25.8876 14.8804 25.9256 14.7253 25.9481C14.6777 25.9542 14.6298 25.958 14.5818 25.9593C14.6043 26.0086 14.7028 26.1969 14.5212 26.4142C14.3397 26.6315 14.2837 26.6631 14.2277 26.802C14.1995 26.7807 14.1695 26.7619 14.138 26.7459C14.0776 26.719 13.9945 26.6788 13.9654 26.6249C13.9485 26.6967 13.926 26.7671 13.8982 26.8355C13.8422 26.9857 13.7593 27.1337 13.7437 27.2457C13.6831 27.1785 13.5711 27.0462 13.4164 27.0731C13.2617 27.1 13.1385 27.3107 13.1116 27.3713C13.1116 27.3331 13.0847 27.304 13.0781 27.3488C13.0735 27.3982 12.9884 27.9135 12.5133 28.3304C12.5089 28.2251 12.5089 27.9919 12.4976 27.9158C12.4533 27.9602 12.3991 28.0256 12.0763 28.1646C11.7602 28.3035 11.8103 28.4426 11.8103 28.4426C11.8103 28.4426 11.7834 28.2209 11.9538 27.9875C12.1263 27.7545 12.2317 27.6446 12.2317 27.6267C12.2289 27.6085 12.2211 27.5914 12.2092 27.5774C12.1868 27.5549 12.142 27.528 12.142 27.5101C12.1689 27.4991 12.4356 27.3713 12.4199 27.1067C12.4042 26.8692 12.3035 26.7459 12.2317 26.6585C12.2206 26.6473 12.3372 26.5644 12.3214 26.5375C12.3101 26.5219 12.1668 26.4164 12.1488 26.3603C12.153 26.3268 12.1606 26.2937 12.1713 26.2617C12.1869 26.2124 12.1981 26.1787 12.1937 26.1451C12.1825 26.0891 12.1219 25.9345 12.104 25.9188C12.1197 25.9232 12.2317 25.9188 12.2317 25.9188C12.2317 25.9188 12.1422 25.7753 12.1263 25.7081C12.1105 25.6409 12.077 25.4637 12.0591 25.4302C12.0972 25.4346 12.1914 25.4413 12.1914 25.4302C12.1959 25.3965 12.1085 25.3405 12.147 25.2972C12.1739 25.3017 12.2255 25.3241 12.2747 25.3869C12.2478 25.3151 12.203 25.1762 12.1088 25.1202C12.1531 25.1046 12.3038 25.0641 12.436 25.1426C12.5682 25.221 12.6133 25.3308 12.6133 25.3308C12.6133 25.3308 12.6918 25.3914 12.8129 25.481C12.9518 25.5908 13.1288 25.747 13.4113 25.8575C13.4718 25.8912 13.6264 25.8912 13.7385 25.8687C13.7873 25.8571 13.8341 25.8382 13.8774 25.8127C13.893 25.8035 13.9095 25.796 13.9267 25.7903C13.9026 25.7419 13.8749 25.6954 13.8438 25.6512C13.882 25.6512 13.9267 25.6558 13.9267 25.6558C13.9267 25.6558 13.9536 25.5952 13.8326 25.4785C13.8595 25.4516 13.8932 25.4342 13.8932 25.3888C13.8551 25.3844 13.7879 25.3284 13.7722 25.306C13.7945 25.2903 13.8282 25.2387 13.8663 25.2231C13.8326 25.1962 13.7497 25.084 13.7116 25.073C13.748 25.0595 13.7833 25.0429 13.817 25.0236C13.817 25.0236 13.6287 24.9743 13.5682 24.9339C13.5076 24.8896 13.4181 24.8129 13.3643 24.7905C13.3081 24.768 13.2096 24.7569 13.1693 24.712C13.2072 24.7233 13.2678 24.712 13.3127 24.712C13.3463 24.712 13.3621 24.7165 13.3731 24.7165C13.3687 24.7008 13.3687 24.6671 13.4562 24.656C13.4982 24.6497 13.5391 24.6368 13.5772 24.6179C13.5772 24.6179 13.4941 24.6135 13.3999 24.5238C13.3056 24.4341 13.2273 24.3625 13.1735 24.3512C13.1175 24.34 13.0122 24.3894 12.9472 24.3848C12.8575 24.3737 12.8194 24.3288 12.8194 24.3288C12.8194 24.3288 12.5214 24.3557 11.8603 23.9523C11.2886 23.6026 11.0398 23.2934 11.0398 23.2934C10.9864 23.274 10.9346 23.25 10.8853 23.2216C10.6702 23.1096 10.3721 22.8765 10.3811 22.5715L10.3799 22.5737Z" fill="#C2A44D"/>
<path fill-rule="evenodd" clip-rule="evenodd" d="M18.6253 9.12156C18.6772 9.1384 18.7232 9.16947 18.7583 9.21124C18.8636 9.33224 18.9308 9.5608 18.6911 9.80517C18.7852 9.8387 18.824 9.84949 18.9062 9.8387C18.8233 9.9374 18.6351 10.1481 18.6238 10.3319C18.6126 10.482 18.7067 10.5269 18.7067 10.5269C18.7067 10.5269 18.5633 10.6927 18.5566 10.9701C18.6244 10.8937 18.6985 10.8232 18.7782 10.7594C18.9441 10.6272 19.1727 10.4771 19.3274 10.383C19.3253 10.4224 19.3306 10.4619 19.3431 10.4994C19.3431 10.4994 19.632 10.2618 19.8749 10.3673C19.9847 10.4167 19.9354 10.5712 19.9354 10.5712C19.9354 10.5712 20.0856 10.5152 20.191 10.6206C20.2963 10.7259 20.4452 10.9976 20.5216 11.1029C20.5552 11.1523 20.6426 11.2464 20.7322 11.3921C20.8545 11.596 20.9566 11.8114 21.0371 12.0352C21.0415 11.9186 21.0706 11.7372 21.4025 11.8514C21.7342 11.968 22.1106 12.2123 22.4266 12.6935C22.7427 13.1747 22.821 13.718 22.9801 13.9248C23.1414 14.1243 23.3074 14.456 23.3186 14.595C23.3298 14.734 23.2692 15.1821 23.6009 16.3947C23.695 16.0182 23.8385 15.1821 23.8385 15.1821L23.917 14.4448L24.0066 12.1631L21.6241 10.1838L19.7616 8.83228L18.5491 8.94885L18.6252 9.12141L18.6253 9.12156Z" fill="#CAA13E"/>
<path fill-rule="evenodd" clip-rule="evenodd" d="M23.0519 12.5172C23.0519 12.5172 23.0182 12.2956 22.458 11.9189C21.8976 11.5468 21.4606 11.5468 21.0572 11.2308C20.7479 10.982 20.4252 10.4104 20.2151 10.2222C20.0111 10.0362 19.9775 9.49824 19.9775 9.49824L20.6656 8.92204L21.6888 7.44298L22.5539 6.49048L22.9685 7.06668L23.5447 7.74349L23.8651 9.1017L23.9817 11.0897L23.0509 12.5174L23.0519 12.5172Z" fill="#B59544"/>
<path fill-rule="evenodd" clip-rule="evenodd" d="M23.7447 14.9001C23.7617 14.5986 23.7245 14.2965 23.6348 14.0082C23.4871 13.5487 23.1643 12.7328 23.0143 12.4273C22.9537 12.0888 22.9986 12.0619 23.0636 12.0238C23.1286 11.9857 23.373 11.8465 23.5069 11.3582C23.6407 10.87 24.056 10.854 24.056 10.854L24.3115 10.6658L24.6993 11.6362L25.0377 12.5126L25.143 13.1827L25.2215 13.7542L25.0377 14.9623L24.1301 15.7826L23.7446 14.9001H23.7447Z" fill="#C89D3A"/>
<path fill-rule="evenodd" clip-rule="evenodd" d="M11.0792 28.3654V28.3406C11.0981 28.3288 11.1147 28.3138 11.1284 28.2962C11.1441 28.2738 11.1555 28.2469 11.1665 28.2402C11.189 28.229 11.2943 28.1959 11.3503 28.2066C11.4063 28.2172 11.5544 28.2782 11.6328 28.2738C11.7942 28.2693 11.9824 28.146 12.2805 28.2021C12.7288 28.285 12.8341 28.5898 13.0941 28.7624C13.2714 28.8835 13.4549 28.8296 13.4818 28.8296H13.5423C13.5535 28.8296 13.6364 28.7355 13.6813 28.7401C13.771 28.7445 13.7798 28.8185 13.8358 28.8229C13.9681 28.8386 14.2236 28.7557 14.3514 28.7894C14.3893 28.8013 14.4238 28.8221 14.4519 28.8502C14.48 28.8783 14.5009 28.9127 14.5128 28.9506C14.5397 29.0335 14.5172 29.1388 14.4522 29.1994C14.3133 29.3271 14.1811 29.4482 14.1542 29.554C14.1884 29.5801 14.2212 29.6079 14.2526 29.6373C13.1437 29.3548 12.0767 28.9276 11.0792 28.3667V28.3654Z" fill="#CEB052"/>
<path fill-rule="evenodd" clip-rule="evenodd" d="M23.0134 23.8873C23.0134 23.8873 23.363 23.4211 23.4841 23.1902C23.6051 22.9522 23.1009 19.9382 23.1009 19.9382L24.114 16.619L24.0869 15.5387C24.0869 15.5387 24.1363 14.5413 24.2528 14.1087C24.3919 14.3575 24.8245 14.6579 24.9186 14.817C24.9629 14.5121 25.1134 13.8689 25.0911 13.1831C25.174 13.3108 25.3735 14.5951 25.3735 14.5951L25.5729 15.4601L25.8329 16.3791L26.1221 17.3496L26.2946 18.0198L26.3932 18.1811L26.4762 18.4635L26.5547 18.7684L26.781 19.4833L26.914 20.0705L27.0193 21.1351C27.0422 21.2166 27.0587 21.2998 27.0687 21.3839C27.0731 21.5005 27.053 21.5677 27.053 21.5879C27.053 21.6082 27.0911 21.8434 27.0754 22.0205C27.053 22.1978 27.053 22.3365 26.914 22.4638C26.7749 22.591 26.6876 23.3512 26.6876 23.3512L26.4388 23.1855C26.4388 23.1855 26.4882 22.959 26.3716 22.7529C26.255 22.5468 26.0287 22.5041 25.9009 22.5378C25.7733 22.5647 25.5178 22.6048 25.4348 22.6767C25.3563 22.7483 25.1637 22.9702 24.9865 23.0711C24.7649 23.2041 24.4038 23.2146 24.2112 23.2594C24.0162 23.3037 23.801 23.4366 23.5746 23.591C23.397 23.706 23.2095 23.8049 23.0143 23.8865L23.0134 23.8873Z" fill="#CCA847"/>
<path fill-rule="evenodd" clip-rule="evenodd" d="M23.0134 28.7844C23.0134 28.7844 23.0282 28.794 23.0567 28.8096C24.649 28.0636 26.0757 27.0061 27.2526 25.6996C27.2398 25.2461 27.2231 24.7811 27.2048 24.6089C27.1668 24.2435 27.1937 23.8715 27.1824 23.6564C27.1712 23.4412 27.0502 22.5648 26.9942 22.3385C26.9336 22.1121 26.8169 22 26.7992 22C26.7835 22.0046 26.6893 22.4259 26.6893 22.5319C26.6893 22.6378 26.6668 22.8928 26.6668 22.9578C26.6512 22.9532 26.6445 22.9135 26.6445 22.8972C26.6221 22.9532 26.5952 23.0519 26.5839 23.0632C26.5727 23.0744 26.5996 22.969 26.5839 22.9466C26.5683 22.9241 26.5396 22.9354 26.5458 22.8794C26.5485 22.8462 26.5537 22.8132 26.5615 22.7808C26.5615 22.7808 26.4943 22.8794 26.4451 23.1304C26.3957 23.3792 26.3957 23.386 26.3778 23.4083C26.3622 23.4353 26.2725 23.5249 26.2679 23.5585C26.2635 23.619 26.3509 23.6795 26.3576 23.7131C26.362 23.7692 26.2791 24.0291 26.2523 24.1563C26.2254 24.2835 26.2366 24.5328 26.2079 24.6606C26.1855 24.7771 26.1636 24.8444 26.0869 24.8936C26.1429 24.9048 26.1967 24.9204 26.1967 24.9204C26.1967 24.9204 26.2752 25.2521 26.0757 25.5346C26.004 25.6332 25.9862 25.6781 25.9099 25.7678C25.7597 25.9335 25.6431 26.1223 25.6319 26.2451C25.6241 26.2089 25.6189 26.1721 25.6162 26.1352C25.6162 26.1352 25.3832 26.4064 25.2845 26.5611C25.1569 26.7606 24.9797 26.7494 24.93 26.7987C24.8802 26.8481 24.8694 26.9376 24.8856 27.0094C24.8413 27.0205 24.758 27.0363 24.7018 27.2088C24.6749 27.2984 24.6077 27.3861 24.5024 27.4464C24.397 27.5067 24.2692 27.5249 24.2042 27.5405C24.2602 27.5562 24.2827 27.5562 24.3096 27.5741C24.276 27.6301 24.1214 27.7175 23.9488 27.8297C23.7762 27.935 23.6932 28.0895 23.6506 28.1904C23.6063 28.2846 23.5409 28.3451 23.4355 28.3564C23.4799 28.3833 23.5455 28.4459 23.579 28.4661C23.5296 28.4774 23.446 28.4774 23.2967 28.6052C23.1397 28.7352 23.086 28.7733 23.0142 28.7845L23.0134 28.7844Z" fill="#C39D3C"/>
<path fill-rule="evenodd" clip-rule="evenodd" d="M19.895 29.8229C19.9808 29.7628 20.0738 29.7135 20.1717 29.6762C20.5213 29.5373 20.8911 29.5105 21.0368 29.4657C21.1758 29.4214 21.2856 29.3602 21.4582 29.3267C21.4536 29.366 21.4497 29.4029 21.4456 29.4378C20.9368 29.5977 20.4188 29.7263 19.8943 29.8229H19.895Z" fill="#D2BA6B"/>
<path fill-rule="evenodd" clip-rule="evenodd" d="M26.3426 20.6284C26.3426 20.6284 26.2709 21.0161 26.1431 21.2604C26.0153 21.5048 25.8772 21.8431 25.8772 21.8431C25.878 21.7669 25.887 21.6909 25.9041 21.6166C25.7427 21.7107 25.3505 21.9372 25.2392 22.038C25.1339 22.1321 24.9567 22.298 24.912 22.3765C25.0173 22.0672 25.1271 21.7893 25.1451 21.6615C24.9838 21.7781 24.2306 22.3989 23.8385 22.8091L22.6169 23.7975C22.476 23.8735 22.3308 23.9415 22.1821 24.0011C21.9716 24.0906 21.7228 24.1668 21.539 24.2386C21.5883 24.1064 21.6666 23.9897 21.7766 23.8777C21.8931 23.7679 22.2427 23.3891 22.2965 23.2128C22.3458 23.0291 22.357 22.9193 22.292 22.7646C22.2315 22.7803 22.0926 22.7871 21.9985 22.8139C21.9044 22.8408 21.8035 22.9416 21.8035 22.9416C21.8035 22.9416 21.8751 22.5315 22.0298 22.1438C21.9132 22.1482 21.7138 22.1817 21.7138 22.1817C21.7138 22.1817 21.9917 21.7156 22.4673 21.3907C22.3216 21.4217 22.1791 21.4659 22.0415 21.5228C21.7636 21.6394 21.4588 21.8119 21.2324 21.9061C21.3601 21.7288 22.2566 20.4493 22.7901 19.2569C23.322 18.0668 23.5207 17.762 23.6372 17.1233C23.6977 16.8073 23.6816 16.3403 23.6977 15.922C23.7133 15.5073 23.7649 15.1353 23.7314 14.8865C23.8702 15.059 24.3903 15.5454 24.4082 16.6325C24.4238 17.7195 23.9107 19.1876 23.366 19.9786C23.499 20.0167 23.8435 20.0616 24.1975 19.4467C24.5515 18.8318 24.5472 18.6601 24.675 18.4045C24.6906 18.5323 24.6861 18.5771 24.6861 18.5771C24.6861 18.5771 25.2017 17.9519 25.4459 17.1651C25.4953 17.5036 25.6409 17.8017 25.4122 18.4226C25.2083 18.9828 24.9417 19.1196 24.9417 19.1196C24.9417 19.1196 25.0739 19.0972 25.2688 18.9806C25.3025 19.0635 25.2958 19.1579 25.3518 19.1913C25.4078 19.2247 25.484 19.281 25.4953 19.3347C25.5557 19.2451 25.6498 19.1307 25.6791 19.0456C25.6566 19.2229 25.6409 19.9981 25.7234 20.3926C25.8961 20.3769 26.0731 20.3657 26.1941 20.0541C26.1112 20.359 26.1112 20.5427 26.1672 20.8027C26.2591 20.7401 26.342 20.6279 26.342 20.6279L26.3426 20.6284Z" fill="#C0993A"/>
<path fill-rule="evenodd" clip-rule="evenodd" d="M20.5191 8.27469C20.5191 8.27469 20.3465 8.34635 20.053 8.34635C19.7975 8.34635 19.8692 8.2478 19.4703 8.2478C18.8562 8.2478 16.7113 8.60239 16.3347 8.59736C16.0903 8.59293 17.1594 8.7027 17.1594 8.7027L19.8916 8.74082L20.4407 8.6965L20.6447 8.28134L20.5191 8.27469Z" fill="#A88F33"/>
<path fill-rule="evenodd" clip-rule="evenodd" d="M13.4348 13.6155C13.4348 13.6155 13.0851 13.8822 12.9372 14.0862C12.7893 14.2903 12.7109 14.4246 12.5427 14.5905C12.5822 14.592 12.6216 14.5867 12.6593 14.5748C12.6593 14.5748 12.6593 14.6192 12.6324 14.6308C12.6556 14.6282 12.6792 14.6309 12.7013 14.6385C12.7233 14.6462 12.7434 14.6587 12.7601 14.6751C12.7107 14.702 12.5763 14.8366 12.6816 14.9958C12.7601 15.1168 12.926 15.1278 12.926 15.1278C12.926 15.1278 12.8879 15.2378 13.047 15.2265C13.3899 15.2109 13.7731 15.0606 13.9501 15.0987C14.1274 15.1431 14.2282 15.1593 14.3536 15.3768C14.4866 15.5919 14.6024 15.6256 14.6024 15.6256C14.6024 15.6256 14.6809 15.426 14.663 15.128C14.7273 14.9674 14.763 14.7967 14.7683 14.6237L14.6518 13.7653L14.1431 13.1221L13.4841 13.4874L13.4348 13.6151V13.6155Z" fill="#E3C571"/>
<path fill-rule="evenodd" clip-rule="evenodd" d="M14.0597 13.4876C14.0597 13.4876 14.109 13.6041 14.3153 13.6152C14.2928 13.6646 14.2928 13.6714 14.2996 13.7093C14.3041 13.7474 14.3107 13.8034 14.3107 13.8034C14.3334 13.7925 14.3539 13.7774 14.3713 13.7591C14.3825 13.8085 14.3601 13.8868 14.3713 13.9429C14.3782 13.9771 14.3895 14.0102 14.4048 14.0415C14.4081 14.0338 14.4118 14.0263 14.416 14.0191C14.4205 14.0079 14.4604 14.1402 14.5707 14.2408C14.5706 14.2253 14.5745 14.21 14.5818 14.1964C14.5835 14.2245 14.5928 14.2517 14.6087 14.2749C14.6004 14.271 14.5929 14.2657 14.5864 14.2592C14.5864 14.2592 14.5975 14.6138 14.6581 14.7972C14.6682 14.7853 14.6772 14.7726 14.6849 14.759C14.6849 14.748 14.6805 14.8577 14.6693 14.9363C14.6536 15.0148 14.6648 15.1246 14.6648 15.1246C14.7053 15.0928 14.7497 15.0664 14.7969 15.0461C14.8642 15.0191 14.9742 14.9362 15.0413 14.7524C15.0802 14.6483 15.1102 14.5411 15.131 14.4319C15.1526 14.4737 15.1676 14.5185 15.1753 14.5649C15.1799 14.6209 15.2852 14.5918 15.2852 14.5918L15.3077 14.3474L15.4406 13.7938L15.5617 13.4509L16.1444 12.5433L17.1972 11.7325L18.1161 11.9432L18.8915 10.8898L17.5557 10.0874L16.2917 10.2196L15.1444 11.8086L14.2256 13.2498L14.0597 13.4874V13.4876Z" fill="#D8B65B"/>
<path fill-rule="evenodd" clip-rule="evenodd" d="M20.6807 11.1882C20.6807 11.1882 20.6022 11.2038 20.3759 11.3212C20.1495 11.4385 19.9926 11.4757 19.9052 11.6483C19.8177 11.8208 19.8111 11.9576 19.8111 11.9576C19.8111 11.9576 19.9657 11.8904 20.0554 11.868C20.1495 11.8456 20.2549 11.8523 20.2436 11.8904C20.2329 11.9165 20.2179 11.9408 20.1993 11.9621C20.1993 11.9621 20.3766 11.9576 20.3719 12.0451C20.3672 12.1326 20.3384 12.2289 20.3048 12.2714C20.2711 12.3158 20.1322 12.3814 20.1166 12.4329C20.0785 12.5383 20.1322 12.5427 20.112 12.6278C20.0963 12.7108 20.0225 12.8722 19.7803 13.1545C19.5315 13.437 19.4257 13.6365 19.4257 13.6365C19.4257 13.6365 19.3047 13.4101 19.2419 13.2151C19.1976 13.2374 18.9596 13.3696 18.9596 13.3696L18.4082 11.449L18.4193 11.3212C18.4193 11.3212 18.4686 11.2607 18.4799 11.1486C18.397 11.1217 18.3858 11.0992 18.2758 10.994C18.1659 10.8889 18.0764 10.7609 17.8927 10.6734C17.8658 10.6241 17.8322 10.557 17.6977 10.53C17.5633 10.5029 17.4826 10.4808 17.4826 10.4808C17.4826 10.4808 17.5543 10.4537 17.5879 10.3977C17.5049 10.409 17.4378 10.4359 17.2563 10.4314C17.0725 10.4269 17.0522 10.4202 16.9515 10.4359C16.8507 10.4515 16.7298 10.4964 16.6848 10.3418C16.6354 10.3036 16.5301 10.3373 16.4404 10.4694C16.3507 10.6015 16.3194 10.707 16.1468 10.7585C16.1347 10.8346 16.1081 10.9076 16.0684 10.9737C16.019 11.0567 15.9406 11.1396 15.8353 11.2628C15.6693 11.4578 15.6962 11.7783 15.4318 12.0226C15.1651 12.2669 15.4761 11.3457 15.4761 11.3457L15.9019 10.3262L17.1144 9.14059L18.9971 9.01294L19.1809 9.98805L20.0999 10.3041L20.6804 11.1894L20.6807 11.1882Z" fill="#D3AE4D"/>
<path fill-rule="evenodd" clip-rule="evenodd" d="M20.9786 11.4034L20.1875 10.2627L19.6339 9.83672C19.6339 9.83672 19.2394 9.11071 19.2126 9.08826C19.1901 9.0726 18.8181 9.03226 18.5805 9.0166L18.6249 9.12637C18.6767 9.14322 18.7228 9.17429 18.7578 9.21605C18.8632 9.33705 18.9304 9.56561 18.6906 9.80997C18.7847 9.84351 18.8236 9.8543 18.9057 9.84351C18.8228 9.9422 18.6346 10.1529 18.6234 10.3367C18.6121 10.4868 18.7063 10.5315 18.7063 10.5315C18.7063 10.5315 18.5628 10.6975 18.5562 10.9748C18.6239 10.8984 18.698 10.8279 18.7778 10.7641C18.9437 10.6311 19.1722 10.4816 19.3269 10.3875C19.3248 10.427 19.3301 10.4665 19.3426 10.5041C19.3426 10.5041 19.6315 10.2665 19.8744 10.3718C19.9842 10.4212 19.9349 10.5759 19.9349 10.5759C19.9349 10.5759 20.0851 10.5199 20.1904 10.6252C20.2958 10.7306 20.4459 11.0017 20.5221 11.1071C20.5557 11.1565 20.6431 11.2506 20.7327 11.3961C20.855 11.6001 20.9571 11.8156 21.0376 12.0394C21.042 11.9497 21.06 11.8243 21.2149 11.8243L20.9795 11.4029L20.9786 11.4034Z" fill="#CAA13E"/>
<path fill-rule="evenodd" clip-rule="evenodd" d="M9.11815 14.6442C9.11815 14.6442 9.06215 14.5052 9.11815 14.2341C9.17414 13.963 9.26161 13.8352 9.29071 13.4363C9.31982 13.0373 9.57984 12.5398 9.57984 12.5398L10.2992 12.2126L10.808 12.3515L10.9581 13.0329L10.3149 13.3875C10.3149 13.3875 10.2813 13.5376 10.0998 13.6586C9.91817 13.7796 9.66716 13.8737 9.60673 13.9971C9.57061 14.0726 9.54425 14.1525 9.52828 14.2347C9.52828 14.2347 9.34449 14.1965 9.23472 14.3175C9.11815 14.4409 9.12258 14.5507 9.11815 14.6448V14.6442Z" fill="#F4EFC8"/>
<path fill-rule="evenodd" clip-rule="evenodd" d="M10.5703 14.4626C10.5703 14.4626 10.5098 14.5007 10.465 14.5956C10.4207 14.5239 10.3147 14.098 10.3103 13.7147C10.3059 13.3315 10.283 13.2365 10.3716 13.1044C10.4603 12.9723 10.8079 12.8332 10.7585 12.5953C10.7092 12.3689 10.503 12.2748 10.2497 12.3398C10.0724 12.3842 9.94049 12.7612 9.7567 12.9494C9.61768 13.0929 9.45191 13.0704 9.40714 13.1489C9.34657 13.2542 9.40256 13.3596 9.38468 13.4268C9.3801 13.4492 9.32411 13.5702 9.2232 13.7159C9.01931 14.0095 8.67419 14.4242 8.62927 14.7962C8.64493 14.5855 8.63385 14.5811 8.68985 14.348L8.65616 14.292L8.87778 13.5658L9.02124 12.9674L9.34184 11.9655L9.90651 10.9413L10.4557 10.3271L11.0271 10.3653L11.0944 11.2236L11.4216 12.8352L12.1097 13.6824L11.0069 14.4245L10.5699 14.4626H10.5703Z" fill="#EBCC73"/>
<path fill-rule="evenodd" clip-rule="evenodd" d="M10.9133 14.7672C10.9133 14.7672 10.8192 14.7897 10.7855 14.7718C10.7519 14.7539 10.7185 14.7337 10.7295 14.7112C10.7406 14.6887 10.8012 14.6508 10.8012 14.6327C10.8024 14.6165 10.7973 14.6003 10.7868 14.5878C10.7764 14.5752 10.7615 14.5672 10.7452 14.5655C10.6936 14.5589 10.678 14.5924 10.678 14.5924C10.678 14.5924 10.6286 14.5544 10.5885 14.5481C10.6122 14.5452 10.6362 14.5436 10.6601 14.5435C10.5982 14.5155 10.5325 14.4966 10.4651 14.4875C10.5211 14.454 10.631 14.3553 10.7027 14.3553C10.7743 14.3553 10.8192 14.3442 10.808 14.3061C10.7968 14.268 10.7408 14.212 10.6804 14.1895C10.7027 14.1626 10.7185 14.1223 10.6647 14.0122C10.6085 13.9024 10.631 13.8284 10.649 13.8017C10.6647 13.768 10.7207 13.7076 10.7476 13.6694C10.7745 13.6313 10.7969 13.5798 10.8417 13.5529C10.8641 13.5372 10.9358 13.5085 11.0076 13.4812C11.0861 13.4543 11.1511 13.4206 11.1958 13.4543C11.2452 13.4879 11.2227 13.5328 11.2227 13.5328C11.2227 13.5328 11.3774 13.4766 11.5163 13.5484C11.6553 13.6155 11.9938 13.6582 11.9938 13.6582L12.1151 13.9026L11.3127 14.5906L10.981 14.7566L10.9138 14.7676L10.9133 14.7672Z" fill="#E5C66B"/>
<path fill-rule="evenodd" clip-rule="evenodd" d="M12.0271 13.6424C12.0271 13.6424 11.7783 13.8084 11.7223 13.8688C11.7559 13.8734 11.8118 13.8958 11.7894 13.9294C11.7625 13.9629 11.6012 14.0795 11.5115 14.1894C11.4174 14.2992 11.3277 14.4382 11.2964 14.5054C11.2628 14.5658 11.0072 14.743 10.9199 14.7653C11.1037 14.7653 11.4735 14.5389 11.6124 14.5389C11.608 14.6062 11.6505 14.6824 11.729 14.6891C11.8074 14.6957 12.0338 14.7384 12.3386 14.5502C12.6433 14.3664 12.5426 14.2296 12.6702 14.14C12.9146 13.9786 13.0132 13.8351 13.1476 13.7456C13.282 13.656 13.3516 13.6356 13.3516 13.6356C13.3516 13.6356 13.3561 13.5684 13.396 13.5752C13.4069 13.5765 13.4172 13.5807 13.4259 13.5874C13.4346 13.5941 13.4413 13.6031 13.4453 13.6133C13.4453 13.6133 13.6784 13.4474 13.9772 13.4027C13.9702 13.3995 13.9646 13.394 13.9615 13.387C13.9615 13.387 13.9838 13.3758 13.9884 13.3645C13.9884 13.3645 14.0041 13.3421 14.0153 13.3533C14.0265 13.3645 14.0422 13.4474 14.0646 13.4811C14.114 13.4586 14.2081 13.248 14.2081 13.248L14.4346 12.6003V12.0085L14.2573 12.0422L12.9276 12.6069L12.1206 13.443L12.0265 13.6424H12.0271Z" fill="#E6BD62"/>
<path fill-rule="evenodd" clip-rule="evenodd" d="M15.8553 10.74C15.9272 10.7226 15.9961 10.6946 16.0599 10.657C16.033 10.7288 16.033 10.8072 15.9164 10.9776C15.7998 11.1479 15.7954 11.1726 15.7013 11.3496C15.6072 11.5334 15.596 11.7979 15.5063 11.9143C15.5465 11.8948 15.5896 11.8819 15.6339 11.8763C15.6339 11.8763 15.5444 11.9548 15.5063 12.0377C15.4682 12.1206 15.4009 12.2931 15.2352 12.3986C15.0694 12.5041 14.8586 12.5712 14.6322 12.82C14.4057 13.0642 14.1727 13.3736 14.056 13.4848C14.1166 13.3795 14.1995 13.1688 14.2219 13.0299C14.2444 12.891 14.2174 12.725 14.2555 12.5413C14.2936 12.3577 14.2936 12.2253 14.4771 11.9047C14.6606 11.5841 14.9747 10.4702 14.9747 10.4702L15.6515 10.2551L15.8555 10.7393L15.8553 10.74Z" fill="#B6933F"/>
<path fill-rule="evenodd" clip-rule="evenodd" d="M15.3666 10.3298C15.3666 10.3298 15.1627 10.6234 15.1068 10.8834C15.0508 11.1435 15.1022 11.121 15.0686 11.2488C15.0486 11.3267 15.0486 11.4084 15.0686 11.4864C15.1392 11.3726 15.2359 11.2773 15.3507 11.2083C15.5435 11.0919 15.7004 11.0089 15.7939 10.9103C15.888 10.805 15.9665 10.6324 16.1703 10.5002C16.0875 10.489 15.9709 10.4508 15.9487 10.4559C16.0318 10.3617 16.2804 10.2183 16.5314 10.0457C16.7802 9.86843 16.7646 9.79692 17.1681 9.61993C17.0358 9.64238 16.973 9.6087 16.8631 9.61993C16.9074 9.52582 17.0626 9.4809 17.2177 9.32636C17.3728 9.17182 17.1191 8.94312 17.1191 8.94312L15.9372 9.65805L15.3657 10.3304L15.3666 10.3298Z" fill="#C49937"/>
<path fill-rule="evenodd" clip-rule="evenodd" d="M12.1593 9.7963L12.1862 9.58118L12.5247 9.03881L12.8788 8.08631V6.7841L12.8519 6.03105L12.9079 5.53789L12.9505 5.38113L12.9954 5.32056L13.2844 5.47066L13.6834 6.01303L13.7215 7.05979L13.3337 8.71156L12.2265 9.91966L12.1593 9.7963Z" fill="#DFC068"/>
<path fill-rule="evenodd" clip-rule="evenodd" d="M13.0402 5.25995C13.0402 5.25995 12.8629 5.26453 12.8251 6.00192C12.7873 6.7393 12.7689 7.12698 12.742 7.49235C12.7152 7.85772 12.6525 8.07948 12.621 8.29475C12.5896 8.51001 12.5717 8.80343 12.4709 8.98279C12.4266 9.06567 12.3319 9.3257 12.11 9.52072C11.8612 9.73584 11.4895 9.88609 11.4332 9.89732C11.3345 9.91963 10.8347 9.96897 10.6308 10.0811C10.5592 10.1192 10.4358 10.164 10.2991 10.2918C10.0279 10.536 9.66709 10.973 9.40706 11.4997C9.00816 12.2865 8.60925 14.5075 8.60925 14.5075L8.69893 14.3574C8.69893 14.3574 8.71016 14.1579 8.90961 13.8082C9.10463 13.4587 9.04864 13.0664 9.31975 12.3963C9.42509 12.1408 9.55731 11.8091 9.71865 11.5266C9.97424 11.0672 10.2835 10.6727 10.5951 10.4576C11.1037 10.108 11.6641 10.0318 11.6641 10.0318L12.2671 9.63286C12.2671 9.63286 12.3724 9.42897 12.5114 9.19583C12.7063 8.86873 12.9546 8.50336 13.0089 7.97222C13.0919 7.18549 12.8923 6.67001 12.9035 6.20388C12.9148 5.73775 12.9192 5.39484 13.0134 5.31181C13.1077 5.22878 13.0403 5.26024 13.0403 5.26024L13.0402 5.25995Z" fill="#A88F33"/>
<path fill-rule="evenodd" clip-rule="evenodd" d="M13.0402 8.77877C13.0402 8.77877 13.3061 8.12427 13.4279 7.54378C13.4503 7.42721 13.4951 7.31079 13.5063 7.21668C13.5623 6.66752 13.578 6.44117 13.5063 6.14081C13.4503 5.9192 13.2352 5.71945 13.1231 5.56461C13.0133 5.40313 12.9617 5.343 12.9842 5.30902C13.0066 5.27504 13.0939 5.21948 13.179 5.22613C13.2695 5.22877 13.3585 5.24977 13.4406 5.28787C13.5227 5.32597 13.5962 5.38036 13.6566 5.44775C13.8291 5.6472 13.9658 6.32416 13.9658 6.32416L14.1096 7.21742L14.4749 8.34248L13.0405 8.77966L13.0402 8.77877Z" fill="#C99E3D"/>
<path fill-rule="evenodd" clip-rule="evenodd" d="M15.5393 8.09749C15.5393 8.09749 15.4899 8.11979 15.4004 8.09749C15.4042 8.13407 15.3979 8.17101 15.382 8.20422C15.3662 8.23743 15.3415 8.26563 15.3107 8.28571C15.2166 8.24759 14.3356 8.32383 14.3356 8.32383C14.3356 8.32383 13.9255 8.25202 13.7977 7.70966C13.7081 7.34872 13.8649 6.85127 13.8133 6.52402C13.7349 6.04208 13.6251 5.94782 13.6139 5.79786C13.6027 5.6479 13.5914 5.60963 13.5914 5.51552C13.5421 5.50429 13.513 5.48863 13.4638 5.48863C13.4525 5.44431 13.4749 5.4056 13.4257 5.32715C13.4525 5.33838 13.6363 5.36083 13.8515 5.56472C14.0287 5.73064 14.0287 5.79106 14.0555 5.82475C14.089 5.85829 14.3603 6.09069 14.4769 6.32235C14.5934 6.55401 14.8198 7.29273 14.8713 7.41373C14.887 7.46308 14.9207 7.51242 15.0043 7.62441C15.1343 7.78589 15.3248 8.05287 15.5399 8.09719L15.5393 8.09749Z" fill="#B58634"/>
<path fill-rule="evenodd" clip-rule="evenodd" d="M14.0868 5.83594C14.2226 6.05526 14.3445 6.28284 14.452 6.51733C14.5842 6.81533 14.6627 7.0597 14.8286 7.25915C14.7389 6.99927 14.5798 6.48822 14.4857 6.30665C14.3804 6.11458 14.1652 5.90774 14.0868 5.83609V5.83594Z" fill="#A88F33"/>
<path fill-rule="evenodd" clip-rule="evenodd" d="M12.5625 9.52066C12.5625 9.52066 12.3362 9.57665 11.9148 9.79856C11.7758 9.87022 11.6437 9.93064 11.5159 9.98679C11.184 10.1369 10.8279 10.2756 10.5454 10.3522C10.5679 10.379 10.579 10.3901 10.579 10.3901C10.579 10.3901 10.579 10.5 10.6396 10.5627C10.606 10.5964 10.1576 10.9012 10.29 11.9209C10.3795 11.8874 10.4849 11.8424 10.5005 11.8424C10.5276 11.847 10.5342 11.9209 10.5678 11.9209C10.6013 11.9209 10.7112 11.8766 10.8278 11.7259C10.8233 11.7864 10.7561 12.396 11.1169 12.8062C11.1841 12.7277 11.3545 12.4677 11.3545 12.4677L11.3589 12.3848C11.3589 12.3848 11.3746 12.0957 11.4688 11.8312C11.5631 11.5668 11.7467 11.3717 11.7467 11.3717L12.7057 10.0023L12.5622 9.52051L12.5625 9.52066Z" fill="#E6C367"/>
<path fill-rule="evenodd" clip-rule="evenodd" d="M11.6662 11.5316C11.6223 11.5626 11.5739 11.5868 11.5228 11.6033C11.5071 11.5473 11.4846 11.3545 11.6169 11.1662C11.7716 10.9397 12.1099 10.6462 12.204 10.4127C12.2646 10.2625 12.2377 9.88602 12.7756 9.40408C13.3136 8.92214 13.5241 8.75637 13.5241 8.75637L14.3937 8.31934L15.4628 8.7407L14.9317 10.8224L14.5193 11.7975L12.8793 11.4883L11.6661 11.5316H11.6662Z" fill="#DCBA5A"/>
<path fill-rule="evenodd" clip-rule="evenodd" d="M12.2925 10.9665L12.4965 10.711V10.5294C12.4965 10.5294 12.7229 10.4689 12.9671 10.2201C13.2113 9.97126 13.5498 9.4939 13.8479 9.523C14.1461 9.55669 14.1752 10.1707 14.1864 10.3434C14.1976 10.5161 14.2358 10.9081 14.2962 11.1189C14.3634 11.3296 13.57 12.1275 13.57 12.1275L13.0312 12.5376L12.2925 10.9665Z" fill="#E9CE77"/>
<path fill-rule="evenodd" clip-rule="evenodd" d="M12.9235 13.0931C12.9235 13.0931 13.0894 12.8331 12.9678 12.7771C13.0394 12.6157 13.1717 12.4454 13.1717 12.4454C13.1717 12.4454 13.2658 12.2124 13.5706 11.9255C13.8753 11.6386 14.0637 11.448 14.1131 11.2553C14.1435 11.1298 14.16 11.0012 14.1624 10.8721C14.1954 10.899 14.2306 10.923 14.2677 10.9437C14.3171 10.9662 14.5501 11.1588 14.5165 11.5467C14.483 11.9345 14.3392 12.0958 14.3392 12.0958C14.3392 12.0958 14.2004 12.2347 14.1018 12.3065C13.9963 12.3782 13.9584 12.4611 13.7812 12.4678C13.7994 12.4534 13.8199 12.442 13.8418 12.4342C13.8418 12.4342 13.658 12.4119 13.5593 12.5014C13.4606 12.5909 13.2509 12.8668 13.1455 12.9498C13.0402 13.017 12.9239 13.0932 12.9239 13.0932L12.9235 13.0931Z" fill="#CDAE50"/>
<path fill-rule="evenodd" clip-rule="evenodd" d="M20.3759 8.73387C20.1111 8.63737 19.8328 8.58293 19.5512 8.57253C19.0805 8.55687 18.3924 8.58376 17.7178 8.58819C16.9917 8.59263 16.3328 8.33939 15.4184 8.29463C15.2683 8.20495 14.8865 7.81268 13.6948 8.64419C13.7665 8.63976 14.56 8.4604 14.8355 8.80567C15.1134 9.14859 15.035 9.73129 14.997 9.87017C14.9252 10.1796 14.6921 10.63 14.5981 10.9461C14.5042 11.2621 14.5263 11.4281 14.4591 11.6498C14.3919 11.8714 14.244 11.9814 14.3313 12.2369C14.4479 12.1652 14.5086 12.1652 14.7033 11.7282C14.898 11.2912 14.858 10.9796 15.1808 10.6098C15.4968 10.2378 16.0229 9.72893 16.223 9.60113C16.423 9.47333 18.0114 8.64862 19.6745 9.43536C20.0756 9.39281 20.376 8.73372 20.376 8.73372L20.3759 8.73387Z" fill="#D2A83E"/>
<path fill-rule="evenodd" clip-rule="evenodd" d="M14.3647 8.42876C14.363 8.41192 14.3593 8.39535 14.3536 8.37942C14.338 8.34664 14.3176 8.3164 14.293 8.28974C14.293 8.28974 13.8985 8.21808 13.6991 8.24039C13.3494 8.27851 13.0334 8.71111 12.8855 8.93302C12.7376 9.15493 12.5538 9.4977 12.3543 9.67485C12.3565 9.65759 12.3526 9.64011 12.3431 9.6255C12.3431 9.6255 12.3543 9.64116 12.332 9.66362C12.3097 9.68608 12.3096 9.69716 12.3208 9.70794L12.3545 9.74148C12.3656 9.74148 12.6749 9.60245 13.0963 9.2096C13.5446 8.79946 13.8875 8.58907 14.0668 8.51697C14.1625 8.47632 14.2625 8.44673 14.3648 8.42876H14.3647Z" fill="#C29637"/>
<path fill-rule="evenodd" clip-rule="evenodd" d="M22.0165 6.7439C22.0165 6.7439 21.9447 6.83343 21.855 6.93212C21.6555 7.14281 21.3955 7.38023 21.1736 7.6246C20.9631 7.85774 20.7255 8.03932 20.4587 8.34411C20.1918 8.64891 19.8825 8.98724 19.8042 9.08594C19.7325 9.18463 19.6765 9.34597 19.6765 9.42885C19.6384 9.40196 19.5936 9.37286 19.5936 9.37286C19.6125 9.40804 19.635 9.44113 19.6609 9.47155C19.7168 9.55 19.8042 9.64884 19.8491 9.70912C19.9042 9.78586 19.9437 9.87264 19.9655 9.96457C19.9924 9.969 20.165 10.0027 20.3802 9.64855C20.5955 9.2944 20.8777 8.90672 20.8777 8.90672L21.3259 8.24099L21.6084 7.67631L21.963 7.04426L22.0169 6.7439H22.0165Z" fill="#AC8132"/>
<path fill-rule="evenodd" clip-rule="evenodd" d="M22.4759 6.29102C22.4759 6.29102 22.2047 6.51264 22.0993 6.64561C21.994 6.77858 21.7448 7.12756 21.7448 7.12756L21.8344 7.11633L22.2895 6.71298L22.4668 6.39695L22.4758 6.29161L22.4759 6.29102Z" fill="#A88F33"/>
<path fill-rule="evenodd" clip-rule="evenodd" d="M22.3928 24.1022C22.3928 24.1022 22.3884 23.9184 22.4915 23.8086C22.5968 23.6987 22.8635 23.5374 23.1235 22.9322C23.3836 22.3271 23.4125 22.1904 23.4125 22.1904C23.4125 22.1904 22.9464 22.5893 22.659 22.6834C22.7262 22.5444 22.7644 22.4458 22.798 22.374C22.7599 22.3405 22.5986 22.3024 22.5829 22.2845C22.6725 22.1948 22.7218 21.9751 22.9034 21.8295C23.1365 21.6522 23.5623 21.3475 23.8933 21.076C24.2242 20.8044 24.8749 20.1728 24.9579 19.989C25.0073 20.0607 25.0183 20.1054 25.0183 20.1054C25.0183 20.1054 24.6912 20.5314 24.5209 20.8025C24.3706 21.0356 24.3819 21.1679 24.3819 21.1679L24.6912 21.0349C24.6912 21.0349 24.7808 21.3666 24.3752 21.871C24.5525 21.8037 24.624 21.8441 24.7248 21.7879C24.5589 21.8934 24.3303 22.0369 24.1152 22.4312C23.9045 22.8257 23.6176 23.2852 23.1336 23.5719C22.6629 23.8745 22.3916 24.1009 22.3916 24.1009L22.3928 24.1022Z" fill="#A67A2E"/>
<path fill-rule="evenodd" clip-rule="evenodd" d="M21.178 8.96711C21.178 8.96711 20.9942 9.3502 20.9673 9.64834C20.9628 9.72015 20.9448 9.77614 20.9448 9.85902C20.9404 10.1257 20.9605 10.4238 20.9005 10.5627C20.878 10.5067 20.8668 10.4686 20.8444 10.4463C20.8108 10.5404 20.7503 10.834 20.7009 10.9437C20.6786 10.8721 20.6293 10.6233 20.6338 10.3297C20.6384 10.0362 20.6449 9.98002 20.6449 9.9196C20.6338 10.0091 20.5733 10.1303 20.5508 10.2019C20.5173 10.1415 20.4791 10.0631 20.4342 9.99805C20.4073 10.0424 20.3738 10.1078 20.3447 10.1415C20.3401 10.1146 20.329 10.0428 20.3223 9.94206C20.3178 9.82549 20.311 9.67538 20.3178 9.64391C20.3289 9.58349 20.4232 9.34592 20.6226 9.12844C20.8602 8.86841 21.1045 8.36875 21.1762 8.21407C21.2478 8.05938 21.5526 7.41626 21.5526 7.41626H21.7858L21.4473 8.18718C21.4473 8.18718 21.2434 8.60854 21.1381 8.76337C21.0327 8.9182 20.8108 9.36187 20.7121 9.53444C20.7838 9.44032 20.8444 9.39098 20.9162 9.3013C20.9856 9.23851 21.1782 8.9674 21.1782 8.9674L21.178 8.96711Z" fill="#8C6228"/>
<path fill-rule="evenodd" clip-rule="evenodd" d="M22.4807 6.26172C22.4426 6.37893 22.3824 6.48776 22.3034 6.58232C22.1644 6.74824 21.8663 6.97 21.7207 7.147C21.5878 7.31956 21.3218 7.79027 21.4427 8.3483C21.487 8.2273 21.5705 7.98751 21.7924 7.71625C22.0143 7.445 22.2518 7.13355 22.3686 6.89155C22.485 6.64718 22.5006 6.45452 22.5006 6.45452L22.545 6.39853L22.5181 6.27073L22.48 6.26172H22.4807Z" fill="#CBA94C"/>
<path fill-rule="evenodd" clip-rule="evenodd" d="M27.0191 21.128C27.0191 21.128 26.9294 20.8838 26.9025 20.6619C26.8756 20.44 26.9468 20.3959 26.8644 20.142C26.815 19.9873 26.7255 20.009 26.703 19.9873C26.6806 19.9656 26.6649 19.7318 26.6693 19.604C26.6738 19.4762 26.6649 19.3105 26.6425 19.2387C26.6089 19.2118 26.5865 19.1893 26.5371 19.0236C26.4811 18.8576 26.4542 18.7748 26.4273 18.7256C26.4005 18.6764 26.3219 18.6314 26.3219 18.5821C26.3219 18.4834 26.4115 18.432 26.4115 18.4048C26.4071 18.3488 26.3399 18.3937 26.3219 18.3779C26.2995 18.351 26.378 18.1897 26.3489 18.1672C26.3377 18.1562 26.2592 18.2503 26.239 18.2234C26.2165 18.1963 26.1896 17.9297 26.1493 17.7527C26.1113 17.5801 26.0708 17.4547 26.0664 17.4031C26.062 17.3538 25.757 16.4841 25.6832 16.2735C25.6236 16.0954 25.5735 15.9144 25.533 15.7311C25.5106 15.6258 25.4949 15.4105 25.4837 15.4329C25.4725 15.4554 25.4793 15.5652 25.4612 15.5607C25.4456 15.5562 25.3896 15.1731 25.3717 15.1125C25.356 15.0519 25.2618 14.8466 25.2387 14.6979C25.2163 14.5477 25.1671 14.1554 25.1334 13.8887C25.0997 13.6221 25.0841 13.5123 25.0841 13.4455C25.0896 13.2822 25.0806 13.1187 25.0572 12.9569C25.0128 12.6744 24.9242 12.3315 24.8465 12.1322C24.6964 11.7556 24.2973 10.7919 24.226 10.5521C24.226 10.4915 24.3044 10.5252 24.3044 10.5252C24.3044 10.5252 24.4993 11.0138 24.6427 11.3902C24.7818 11.7668 24.914 12.0985 24.9477 12.1322C24.9746 12.1658 25.1853 12.5356 25.2794 13.1407C25.3735 13.7459 25.407 14.3039 25.4632 14.6759C25.4901 14.8532 25.5125 15.0413 25.5685 15.2295C25.6289 15.4335 25.723 15.6442 25.8464 15.9669C25.9518 16.2381 26.0302 16.4645 26.0728 16.6595C26.1221 16.9083 26.1221 17.0965 26.1512 17.2199C26.1782 17.3252 26.2184 17.5358 26.3127 17.8404C26.407 18.1451 26.5457 18.5375 26.6398 18.7817C26.8237 19.2703 26.9057 19.6782 26.9335 19.8957C26.958 20.1198 27.0411 20.8953 27.0186 21.1283L27.0191 21.128Z" fill="#A88F33"/>
<path fill-rule="evenodd" clip-rule="evenodd" d="M22.4918 6.23481L22.4806 6.2617C22.4806 6.2617 22.5141 6.27293 22.5075 6.31784C22.5079 6.37929 22.5042 6.4407 22.4962 6.50163C22.4852 6.58009 22.4627 6.64051 22.4583 6.68986C22.4583 6.7952 22.4739 6.9162 22.3253 7.21657C22.281 7.29945 22.2536 7.37111 22.2312 7.42046C22.1752 7.54146 22.164 7.55948 22.1146 7.61548C22.1931 7.57115 22.4755 7.39386 22.6189 7.42046C22.5203 7.47645 22.3701 7.58637 22.276 7.72983C22.2984 7.73426 22.3925 7.75229 22.5419 7.72983C22.7907 7.69171 23.0686 7.60203 23.3128 7.61991C23.5796 7.63557 23.4743 7.29945 23.4743 7.29945L23.1664 6.62264L22.5837 6.21265L22.4918 6.23496V6.23481Z" fill="#BE9C44"/>
<path fill-rule="evenodd" clip-rule="evenodd" d="M24.0113 11.3046C24.0113 11.3046 23.7513 11.0446 23.646 10.1522C23.5406 9.25569 23.5631 7.93605 23.5631 7.93605L23.3524 7.42057C23.3524 7.42057 23.3081 7.07766 23.1977 6.95001C23.0874 6.82236 22.8706 6.6071 22.7719 6.50176C22.6732 6.39642 22.5612 6.25296 22.494 6.2305C22.5276 6.17451 22.6778 5.85848 23.2537 5.85405C23.8296 5.84962 24.0072 6.17007 24.0673 6.28664C24.1275 6.40321 24.399 6.90716 24.4998 7.8675C24.5939 8.82665 24.5985 8.89845 24.5828 9.23013C24.5716 9.41393 24.511 9.83972 24.4055 10.2946C24.3092 10.6802 24.2039 11.1106 24.011 11.3055L24.0113 11.3046Z" fill="#A17C34"/>
<path fill-rule="evenodd" clip-rule="evenodd" d="M23.1957 12.069C23.2824 12.0752 23.369 12.0557 23.4446 12.0128C23.5274 12.0084 23.8278 12.0465 24.0586 11.7529C24.0743 11.82 24.1148 12.0017 24.0093 12.1631C24.0654 12.1069 24.1483 12.0846 24.1595 12.069C24.164 12.1518 24.2424 12.4073 23.9107 13.0281C24.0003 12.9295 24.1056 12.934 24.1997 12.9228C24.2043 13.0393 24.2669 13.4314 24.1012 13.6423C23.9914 13.7857 23.812 13.7408 23.812 13.7408C23.8146 13.7095 23.8146 13.678 23.812 13.6467C23.8076 13.5861 23.7851 13.5257 23.8009 13.4854C23.7143 13.4458 23.6353 13.3911 23.5678 13.3239C23.3727 13.1401 23.1195 12.8264 23.1016 12.5933C23.0792 12.3333 23.3123 12.2773 23.3123 12.2773C23.2928 12.2598 23.2761 12.2394 23.263 12.2167C23.2517 12.1787 23.2405 12.1181 23.1957 12.069Z" fill="#8C6228"/>
<path fill-rule="evenodd" clip-rule="evenodd" d="M21.4674 9.24954C21.4674 9.24954 21.4562 9.23388 21.3958 9.30554C21.407 9.23388 21.4182 9.16651 21.4226 9.1015C21.4512 9.04132 21.4883 8.98551 21.5326 8.93574C21.4989 9.00281 21.4764 9.06339 21.4764 9.06339C21.4764 9.06339 21.5594 8.9087 21.6804 8.81459C21.7633 8.74736 21.8687 8.71604 21.9134 8.65325C21.9628 8.58603 21.9515 8.5748 21.9628 8.56357C21.9628 8.56357 22.0727 8.49192 22.2408 8.28109C22.2631 8.2542 22.2968 8.22509 22.3193 8.1982C22.3572 8.18254 22.4469 8.14221 22.5523 8.08828C22.6622 8.02785 22.7854 7.94497 22.8616 7.91099C23.0117 7.84377 23.171 7.85056 23.2449 7.74507C23.3009 7.72941 23.3613 7.56128 23.3502 7.41797C23.4331 7.45151 23.8589 7.71597 24.0047 8.29423C24.11 8.70437 23.9217 9.33642 23.8432 9.64136C23.7648 9.9463 23.7537 10.1725 23.6438 10.3114C23.5047 10.4953 23.0566 10.7546 22.9467 10.883C22.8526 10.9883 22.5703 11.255 22.5814 11.4477C22.5926 11.5911 22.7696 11.6693 22.8078 11.6965C22.8461 11.7237 22.8458 11.757 22.9176 11.7408C22.9894 11.7245 23.0162 11.6914 23.0454 11.6914C23.0789 11.6959 23.0789 11.7027 23.0946 11.7027C23.106 11.7023 23.1173 11.7008 23.1283 11.6981C23.1283 11.6981 23.1171 11.9021 22.6397 11.964C22.606 11.9686 22.5725 11.9797 22.5298 11.9865C22.5859 11.9596 22.6195 11.9596 22.68 11.8767C22.6128 11.8655 22.42 11.8543 22.3707 11.8386C22.3863 11.8117 22.4379 11.7399 22.4805 11.7064C22.5186 11.6728 22.476 11.662 22.4425 11.6795C22.3847 11.7188 22.3293 11.7614 22.2766 11.8071C22.2206 11.8565 22.1712 11.9237 22.0816 11.9844C22.0547 11.8947 22.0591 11.7244 22.1646 11.6012C22.1376 11.6056 22.086 11.6841 22.0368 11.6684C22.0279 11.5866 22.0332 11.504 22.0525 11.424C22.0793 11.3231 22.225 11.1461 22.225 11.1461L22.9287 9.88868L23.0788 8.93618L21.4674 9.24925V9.24954Z" fill="#92723A"/>
<path fill-rule="evenodd" clip-rule="evenodd" d="M21.4293 9.30315C21.4293 9.30315 21.3911 9.33004 21.4674 9.3816C21.4561 9.39726 21.4293 9.45326 21.3956 9.49138C21.3576 9.5357 21.3171 9.56318 21.3014 9.6013C21.2679 9.67975 21.241 9.73353 21.241 9.76721C21.241 9.8009 21.2298 10.016 21.1357 10.1549C21.102 10.2042 21.0639 10.2871 21.037 10.3431C20.981 10.4417 20.9316 10.5204 20.9204 10.5647C20.8981 10.6432 20.8824 10.8583 20.8824 10.8583C20.8824 10.8583 20.9318 10.7977 20.9496 10.7754C20.9226 10.8314 20.8935 10.8918 20.851 10.9368C20.8778 10.9143 20.9563 10.8583 21.0885 10.7417C21.2723 10.5872 21.5593 10.3272 21.909 10.1212C21.8035 10.1593 21.714 10.1593 21.6423 10.1706C21.6983 10.1146 22.2026 9.52285 22.4671 9.46685C22.4831 9.44649 22.4911 9.42093 22.4895 9.39505L22.263 9.37274L21.8035 9.47128L21.7364 9.1167L21.4293 9.30271V9.30315Z" fill="#B18E3E"/>
<path fill-rule="evenodd" clip-rule="evenodd" d="M22.1601 11.3205C22.1601 11.3205 22.0996 11.3809 22.0436 11.5311C22.0005 11.4861 21.9635 11.4356 21.9336 11.3809C21.8508 11.242 21.7231 11.0649 21.425 11.1658C21.4205 11.0717 21.4137 11.0223 21.425 10.9551C21.4743 10.944 21.6244 10.823 21.7745 10.6459C21.88 10.5249 21.9786 10.3858 22.0458 10.2088C22.0901 10.1751 22.1668 10.1191 22.2674 10.0541C22.4109 9.9556 22.5834 9.821 22.6103 9.6709C22.5431 9.69779 22.3996 9.76501 22.1844 9.75393C22.2674 9.71581 22.395 9.67548 22.3794 9.50956C22.4131 9.4871 22.44 9.47144 22.44 9.47144C22.4147 9.46302 22.3881 9.45921 22.3615 9.46021C22.3569 9.44455 22.3503 9.42224 22.3122 9.43332C22.274 9.44441 22.2678 9.44455 22.2628 9.46021C22.2472 9.46479 22.1956 9.46021 22.1575 9.48725C22.1194 9.51429 22.014 9.60367 21.9737 9.61933C21.9893 9.59244 22.0117 9.55226 22.0117 9.55226C22.0117 9.55226 21.9019 9.56334 21.8234 9.59658C21.68 9.64593 21.5142 9.73561 21.3461 9.82292C21.3617 9.79603 21.3685 9.7786 21.3796 9.77358C21.3907 9.76855 21.4177 9.7625 21.4177 9.75792C21.4177 9.75334 21.4066 9.71359 21.4133 9.69749C21.4636 9.591 21.5229 9.48903 21.5906 9.3927C21.669 9.28721 21.6847 9.1371 21.6847 9.1371L22.0276 8.96453L22.9913 8.74292L23.6167 8.78104L23.5383 9.21363L23.1689 9.96889L22.8529 10.6569L22.492 11.0784L22.1603 11.3205H22.1601Z" fill="#543E26"/>
<path fill-rule="evenodd" clip-rule="evenodd" d="M23.7222 9.44814C23.7222 9.44814 23.3456 9.91427 23.2403 9.98608C23.3075 9.84262 23.7222 8.98866 23.8723 8.75109C23.8388 8.7242 23.7939 8.7242 23.8992 8.30786C23.8097 8.5184 23.7782 8.62832 23.7043 8.68431C23.6305 8.74031 23.6213 8.72243 23.5714 8.72243C23.5808 8.70537 23.5847 8.6858 23.5824 8.66643C23.5824 8.66643 23.2664 8.62832 23.0506 8.62832C22.8347 8.62832 22.4074 8.74489 22.1697 8.839C21.9814 8.91745 21.8761 8.91745 21.8089 8.96665C21.7417 9.02264 21.7035 9.08322 21.6698 9.09888C21.643 9.11454 21.5153 9.15487 21.4861 9.19742C21.4592 9.24175 21.4144 9.29154 21.4144 9.30276C21.4144 9.31399 21.4032 9.3298 21.4369 9.31843C21.4479 9.31399 21.531 9.26908 21.6251 9.21308C21.7527 9.14143 21.9074 9.05855 22.0196 9.0092C22.34 8.8814 22.4409 8.90386 22.5843 8.87697C22.7344 8.85008 22.9496 8.78729 23.093 8.78729C23.2364 8.78286 23.5077 8.78729 23.5705 8.79852C23.5436 8.82097 23.5211 8.84786 23.5324 8.94198C23.5324 8.96886 23.5099 8.99797 23.488 9.06298C23.421 9.24677 23.2932 9.55156 23.2221 9.70625C23.1235 9.91679 23.0115 10.0939 22.9561 10.2037C22.9007 10.3135 22.7788 10.6026 22.6581 10.7573C22.5374 10.912 22.4743 11.0061 22.4365 11.0398C22.3987 11.0735 22.1271 11.2728 22.1474 11.3446C22.1967 11.3289 22.5083 11.2116 22.7345 10.9569C22.9607 10.7022 23.0058 10.5468 23.1828 10.4077C23.3598 10.2687 23.4988 10.0357 23.5817 9.84306C23.6511 9.6637 23.6355 9.60771 23.7228 9.44859L23.7222 9.44814Z" fill="#806031"/>
<path fill-rule="evenodd" clip-rule="evenodd" d="M15.6063 12.9274C15.6063 12.9274 15.557 13.1313 15.4449 13.2322C15.3351 13.3309 15.14 13.416 15.1177 13.5819C15.0908 13.7477 15.3128 13.8307 15.3128 13.8307C15.3128 13.8307 15.1916 14.0302 15.1916 14.1803C15.1916 14.335 15.1872 14.3641 15.2028 14.512C15.1851 14.5234 15.17 14.5385 15.1585 14.5563C15.1585 14.5563 15.1696 14.6998 15.2795 14.7893C15.3894 14.8788 15.4834 14.9328 15.5394 14.9103C15.548 14.9286 15.5555 14.9473 15.5619 14.9665C15.5619 14.9665 15.6449 14.7558 15.7009 14.572C15.7569 14.3838 15.8062 14.4105 15.8286 14.1573C15.8509 13.904 16.0945 13.4692 16.0945 13.4692L16.2607 13.0976L15.9896 12.887L15.6063 12.9273V12.9274Z" fill="#B6903C"/>
<path fill-rule="evenodd" clip-rule="evenodd" d="M16.1109 13.2927C16.055 13.3501 16.0034 13.4115 15.9565 13.4765C15.8848 13.5752 15.8288 13.6647 15.7235 13.703C15.6182 13.7413 15.5509 13.741 15.5576 13.8465C15.5642 13.952 15.6629 13.9966 15.7189 14.0504C15.7795 14.1063 15.8288 14.2005 15.802 14.3059C15.8355 14.2903 15.8961 14.2723 15.9521 14.1513C16.0081 14.0303 16.3997 13.2929 16.3997 13.2929H16.1109V13.2927Z" fill="#685026"/>
<path fill-rule="evenodd" clip-rule="evenodd" d="M17.6553 11.5915C17.6553 11.5915 17.6889 11.5019 17.6553 11.4369C17.6216 11.3697 17.4178 11.3472 17.3169 11.271C17.2115 11.1926 17.0837 11.138 16.9784 11.1725C16.994 11.1343 17.0568 11.0513 17.0053 11.0334C16.9559 11.0178 16.7723 11.1007 16.7229 11.1388C16.6736 11.1769 16.5614 11.2217 16.5391 11.2487C16.5168 11.2757 16.4786 11.3272 16.4561 11.3047C16.4337 11.289 16.4226 11.2487 16.3845 11.271C16.3463 11.2933 16.1628 11.4436 16.129 11.531C16.0952 11.6185 16.0191 11.8135 15.7905 12.0353C15.562 12.257 15.4633 12.4006 15.5305 12.4835C15.5977 12.5664 15.6292 12.506 15.6404 12.5776C15.6491 12.648 15.6453 12.7193 15.6292 12.7883C15.6023 12.9049 15.5575 13.0147 15.618 13.0371C15.7727 13.0865 15.9229 12.9928 15.9564 13.0215C16.0237 13.0819 15.9183 13.2994 16.0774 13.3419C16.2389 13.3862 16.398 13.3038 16.398 13.3038L16.9852 12.9878L17.55 12.6898L17.839 12.1182L17.684 11.6408L17.6544 11.5915H17.6553Z" fill="#D4B968"/>
<path fill-rule="evenodd" clip-rule="evenodd" d="M17.1011 12.9564C17.1011 12.9564 17.0024 12.8063 17.1236 12.6739C17.2447 12.5415 17.4171 12.4857 17.4844 12.4028C17.4716 12.387 17.4544 12.3754 17.435 12.3693C17.4796 12.2894 17.5477 12.2252 17.63 12.1853C17.5965 12.1518 17.5516 12.1249 17.5024 12.1249C17.3925 12.1249 17.3251 12.1921 17.2243 12.1921C17.1258 12.1921 17.1146 12.1428 17.1146 12.1428C17.1146 12.1428 17.2805 12.1271 17.2647 12.0531C17.249 11.9747 17.2204 11.9747 17.2204 11.9747C17.2204 11.9747 17.5408 11.8417 17.5968 11.7708C17.6528 11.6999 17.6461 11.6161 17.6574 11.5825C17.6953 11.5825 17.9172 11.466 18.0069 11.5153C18.0966 11.5647 18.0338 11.6991 18.0338 11.6991C18.0338 11.6991 18.3052 11.4951 18.4435 11.295C18.5645 11.3063 18.6208 11.2122 18.7094 11.2122C18.8193 11.2122 18.9919 11.3623 19.0254 11.6827C19.0479 11.8665 19.0814 11.9718 19.0479 12.2969C19.0322 12.4807 19.0367 12.8731 19.0922 13.0678C19.1302 13.2225 19.2199 13.2068 19.2199 13.2068C19.2061 13.254 19.1788 13.296 19.1414 13.3278C19.0808 13.3838 19.0742 13.5319 19.0808 13.5879C19.0898 13.6288 19.101 13.6692 19.1145 13.7089C19.1145 13.7089 19.0429 13.7917 19.0248 13.8479C19.0092 13.9039 18.9353 13.942 18.8814 13.942C18.8275 13.942 18.8545 13.9374 18.7828 13.942C18.7112 13.9466 18.6887 13.9577 18.6438 13.942C18.5989 13.9263 18.5654 13.9083 18.5834 13.7647C18.5991 13.6212 18.0298 13.2873 18.0298 13.2873L17.0991 12.9557L17.1011 12.9564Z" fill="#CCA849"/>
<path fill-rule="evenodd" clip-rule="evenodd" d="M16.0322 14.3729C16.0322 14.3729 16.2361 14.6441 17.0744 14.6441C17.4733 14.6441 17.6124 14.606 17.6949 14.5836C17.7846 14.5611 18.1207 14.429 18.4592 14.03C18.764 13.6692 18.6968 13.5213 18.6968 13.5213L18.5195 13.4944L17.9433 13.5728L16.2383 14.299L16.0315 14.3729H16.0322Z" fill="#585136"/>
<path fill-rule="evenodd" clip-rule="evenodd" d="M16.6573 14.4402C16.6573 14.4402 15.9312 14.6017 15.9312 14.1422C15.9312 13.694 16.3794 13.2233 16.4915 13.1404C16.6081 13.0574 16.886 12.9631 16.886 12.9631H17.5562L17.6838 13.3016L17.6278 14.0322L16.6573 14.4401V14.4402Z" fill="#252211"/>
<path fill-rule="evenodd" clip-rule="evenodd" d="M17.3277 13.1001C17.3277 13.1001 17.1888 12.9723 16.8728 13.1444C16.5567 13.3165 16.3011 13.6763 16.2855 14.003C16.2698 14.2919 16.523 14.5072 16.9175 14.5184C17.2111 14.5295 17.3882 14.496 17.4779 14.4741C17.4555 14.4472 17.3389 14.3016 17.3389 14.3016L17.3278 13.1002L17.3277 13.1001Z" fill="#C3B378"/>
<path fill-rule="evenodd" clip-rule="evenodd" d="M17.1912 13.1715C17.1912 13.1715 17.1577 13.1446 17.0583 13.1984C16.9754 13.2427 16.8544 13.3599 16.7603 13.4428C16.6997 13.4921 16.6616 13.5144 16.6273 13.5525C16.4883 13.7184 16.3717 13.9897 16.4391 14.1241C16.5064 14.2586 16.7282 14.4133 17.293 14.3079L17.1896 13.1717L17.1912 13.1715Z" fill="#E6D89C"/>
<path fill-rule="evenodd" clip-rule="evenodd" d="M17.0072 13.4496C17.0072 13.4496 16.9176 13.5886 16.9176 13.8105C16.9176 14.0369 17.0454 14.3977 17.5161 14.4246C17.8768 14.447 18.1188 13.9047 18.3811 13.694C18.5805 13.5326 18.7015 13.5281 18.7015 13.5281C18.7015 13.5281 18.4976 13.3064 17.9531 13.0194C17.4151 12.7302 16.8122 12.6921 16.485 13.1359C16.6397 13.1247 17.1395 12.9969 17.1395 12.9969L17.3838 13.0754L17.0072 13.4498V13.4496Z" fill="#252211"/>
<path fill-rule="evenodd" clip-rule="evenodd" d="M17.7111 13.7432C17.6955 13.7096 17.6842 13.6647 17.7492 13.6536C17.8142 13.6425 17.8433 13.649 17.8658 13.6979C17.8882 13.7468 17.9101 13.7876 17.8769 13.8079C17.8433 13.8257 17.7559 13.8079 17.711 13.7429L17.7111 13.7432ZM17.6058 13.4271C17.6058 13.4271 17.5833 13.4428 17.5946 13.4115C17.599 13.3735 17.6283 13.3061 17.6999 13.3219C17.7715 13.3377 17.756 13.4161 17.7442 13.4385C17.7324 13.461 17.6726 13.4989 17.6277 13.4828C17.622 13.4814 17.6167 13.4786 17.6123 13.4747C17.6079 13.4708 17.6044 13.466 17.6022 13.4605C17.6 13.4551 17.5992 13.4492 17.5997 13.4433C17.6002 13.4375 17.6021 13.4318 17.6052 13.4268L17.6058 13.4271Z" fill="#6F674D"/>
<path fill-rule="evenodd" clip-rule="evenodd" d="M11.5391 13.5704C11.5391 13.5704 11.7164 13.7033 11.9223 13.6982C12.1262 13.6936 12.3884 13.4831 12.5094 13.3485C12.5811 13.27 12.6424 13.1871 12.7089 13.1221C12.765 13.0661 12.803 13.0392 12.8299 13.0011C12.868 12.9568 12.9083 12.8735 12.9286 12.8464C12.8792 12.8846 12.8076 12.9519 12.7336 12.9967C12.6619 13.041 12.5072 13.1243 12.4444 13.1468C12.384 13.1693 11.7564 13.5014 11.7564 13.5014L11.5391 13.5704Z" fill="#AC924C"/>
<path fill-rule="evenodd" clip-rule="evenodd" d="M11.8096 11.9144C11.8096 11.9144 11.9081 11.8472 12.0987 11.8045C12.2825 11.7602 12.6523 11.7261 12.6523 11.7261L12.9571 11.859L13.0781 12.3185L12.8565 12.796L12.5741 12.9733L12.2535 12.4578L11.8103 11.9153L11.8096 11.9144Z" fill="#9F8E57"/>
<path fill-rule="evenodd" clip-rule="evenodd" d="M11.4109 12.3245L11.3054 12.4033C11.3054 12.4033 11.3325 12.3539 11.3548 12.2038C11.3771 12.0537 11.4938 11.6883 11.6641 11.4776C11.8345 11.2669 11.8301 11.2782 11.8301 11.2782C11.8144 11.2753 11.7983 11.2758 11.7828 11.2797C11.7673 11.2835 11.7529 11.2906 11.7404 11.3005C11.7628 11.2508 11.9063 11.0735 12.0498 10.9849C12.1932 10.8963 12.2492 10.8683 12.3993 10.9406C12.5494 11.0128 12.5875 11.0504 12.6975 11.0459C12.8074 11.0415 12.9014 10.9249 12.9014 10.9249C12.9014 10.9249 12.9238 10.9966 12.8409 11.1625C12.758 11.3284 12.4308 11.6667 12.4308 11.6667L11.7494 12.1329L11.4109 12.325V12.3245Z" fill="#EAC970"/>
<path fill-rule="evenodd" clip-rule="evenodd" d="M11.915 11.8582C11.915 11.8582 12.4082 11.9254 12.5583 11.7865C12.5627 11.8022 12.5808 11.8022 12.5808 11.8134C12.5795 11.8219 12.5756 11.8297 12.5695 11.8357C12.5859 11.8331 12.6023 11.8317 12.6189 11.8313C12.6386 11.8372 12.6589 11.841 12.6794 11.8425C12.696 11.8422 12.7125 11.8407 12.7288 11.838C12.7272 11.8491 12.7234 11.8598 12.7177 11.8695C12.7119 11.8791 12.7042 11.8875 12.6951 11.8941C12.7176 11.8941 12.7394 11.8985 12.7394 11.9164C12.7394 11.9343 12.7439 11.9882 12.717 11.9994C12.6947 12.0056 12.671 12.004 12.6497 11.9949C12.6515 12.0373 12.6631 12.0788 12.6834 12.116C12.7278 12.1989 12.8223 12.2933 12.9494 12.2661C12.9494 12.2661 13.0164 12.4275 12.7341 12.786C12.6961 12.8354 12.6557 12.9026 12.6065 12.9586C12.587 13.001 12.5722 13.0453 12.5621 13.0908C12.5621 13.0908 13.0396 12.907 13.1763 12.4879C13.3153 12.0665 13.3422 11.652 13.3153 11.2643C13.3108 11.1544 13.2929 11.0761 13.266 11.0199C13.1988 10.8809 13.0104 10.9033 12.9343 10.9818C12.8244 11.0917 12.6406 11.365 12.3851 11.5533C12.1251 11.7415 12.114 11.7749 11.9144 11.8582H11.915Z" fill="#D7BC6B"/>
<path fill-rule="evenodd" clip-rule="evenodd" d="M11.3235 12.4636C11.3235 12.4636 11.2294 12.5196 11.18 12.7295C11.1307 12.9446 11.2244 13.2069 11.2786 13.2898C11.3328 13.3726 11.4559 13.5991 11.7112 13.6104C11.7744 13.61 11.8369 13.5971 11.895 13.5722C11.9841 13.5314 12.0677 13.4794 12.1438 13.4176C12.2537 13.3347 12.3432 13.263 12.332 13.2562C12.3051 13.245 11.6552 12.7071 11.6552 12.7071L11.4108 12.4343L11.3234 12.4639L11.3235 12.4636Z" fill="#585136"/>
<path fill-rule="evenodd" clip-rule="evenodd" d="M11.938 13.3555C11.938 13.3555 12.0703 13.3444 12.1487 13.2951C12.2272 13.2458 11.6892 12.7124 11.6892 12.7124L11.7273 13.2886L11.938 13.3555Z" fill="#453A25"/>
<path fill-rule="evenodd" clip-rule="evenodd" d="M11.3657 12.4231C11.3657 12.4231 11.2985 12.5509 11.2985 12.5846C11.2873 12.6943 11.3209 13.0395 11.3478 13.1492C11.3747 13.2658 11.5204 13.4428 11.7088 13.4428C11.8252 13.4428 11.9867 13.3711 11.9867 13.3533C11.9867 13.3308 11.8208 13.3089 11.776 13.2255C11.7491 13.1811 11.7379 13.0709 11.7317 12.9595C11.7272 12.8879 11.7272 12.8094 11.7541 12.7822C11.8147 12.715 11.8258 12.5222 11.8258 12.5222L12.0409 12.1226H11.758L11.4195 12.3332L11.3657 12.4231Z" fill="#84754B"/>
<path fill-rule="evenodd" clip-rule="evenodd" d="M11.2834 12.5464C11.2834 12.5464 11.5051 12.2528 11.7048 12.1854C11.9045 12.1181 11.9939 12.1585 11.9939 12.1585L11.8774 12.4567L11.7114 12.6405L11.7227 12.7346C11.7227 12.7346 11.6956 12.9834 11.8616 13.156C12.0275 13.3285 12.1507 13.3219 12.2225 13.3219C12.2943 13.3219 12.5004 13.2613 12.6057 13.0125C12.6998 12.7795 12.7783 12.4806 12.5901 12.181C12.4061 11.8829 12.0812 11.8713 12.0185 11.8713C11.9557 11.8713 11.4627 11.896 11.2834 12.5459V12.5464Z" fill="#252211"/>
<path fill-rule="evenodd" clip-rule="evenodd" d="M16.9734 13.5436C16.8905 13.5054 16.969 13.2725 17.0518 13.2007C17.1347 13.1289 17.2401 13.0461 17.424 13.0347C17.4911 13.0303 17.5561 13.0729 17.545 13.1178C17.5293 13.2007 17.4128 13.3172 17.3074 13.4001C17.1618 13.5145 17.0675 13.5861 16.9734 13.5436Z" fill="#F7F7E7"/>
<path fill-rule="evenodd" clip-rule="evenodd" d="M12.4911 12.273C12.5517 12.2686 12.6302 12.3173 12.6458 12.3829C12.6615 12.4546 12.6077 12.598 12.4911 12.598C12.397 12.598 12.3477 12.4815 12.3477 12.4479C12.3487 12.4203 12.3564 12.3934 12.3701 12.3695C12.3745 12.3627 12.3858 12.2842 12.4911 12.273Z" fill="#F8F6DE"/>
<path fill-rule="evenodd" clip-rule="evenodd" d="M11.6168 12.3245C11.6168 12.3245 11.4621 12.3961 11.3905 12.5461C11.3393 12.6568 11.3238 12.7807 11.3461 12.9006C11.3574 12.9566 11.4134 13.0955 11.4515 13.1448C11.4896 13.1942 11.5412 13.2279 11.5793 13.2233C11.6174 13.2187 11.6957 13.118 11.6957 13.0575C11.6957 12.9971 11.7003 12.7415 11.7742 12.6025C11.8392 12.4636 11.6173 12.3246 11.6173 12.3246L11.6168 12.3245Z" fill="#D4C38B"/>
<path fill-rule="evenodd" clip-rule="evenodd" d="M11.6393 12.3131C11.6124 12.3288 11.5677 12.3513 11.5788 12.3804C11.59 12.4072 11.6841 12.4247 11.7178 12.4903C11.7559 12.5575 11.7559 12.6291 11.7447 12.6628C11.7739 12.6489 11.8005 12.6299 11.8231 12.6067C11.8725 12.5507 11.9329 12.4746 11.9845 12.4746C12.0181 12.4746 12.0517 12.4903 12.0832 12.4903C12.1325 12.4903 12.1817 12.4746 12.1885 12.4231C12.1996 12.3558 12.0944 12.2953 12.0338 12.3065C12.045 12.2622 12.0607 12.1967 12.0114 12.1518C11.962 12.1069 11.8075 12.1855 11.7738 12.2079C11.7401 12.2304 11.6393 12.3133 11.6393 12.3133V12.3131Z" fill="#E2D59D"/>
<path fill-rule="evenodd" clip-rule="evenodd" d="M15.2009 17.022L15.5326 16.9241L15.6267 16.9913C15.6267 16.9913 15.6937 17.1348 15.7992 17.1526C15.7655 17.2243 15.6781 17.2856 15.6827 17.3364C15.6872 17.3872 15.732 17.4261 15.732 17.4261C15.732 17.4261 15.4339 17.9191 16.0211 18.416C15.8821 18.472 15.7051 18.549 15.611 18.5933C15.6781 18.6089 15.8215 18.6376 15.8821 18.692C15.9427 18.7463 15.9427 18.7636 15.9987 18.7973C16.0547 18.831 16.0882 18.8758 16.0771 18.8959C16.039 18.8734 15.9112 18.8063 15.8889 18.869C15.8666 18.9316 15.3353 18.9071 15.3353 18.9071L14.4388 19.0796C14.4388 19.0796 14.4723 18.99 14.3782 18.9071C14.2685 18.8085 14.134 18.9115 13.9906 18.8017C13.8023 18.6583 13.7955 18.4924 13.7351 18.4297C13.7955 18.3916 13.9189 18.3356 14.2125 18.2968C14.2012 18.2743 14.1631 18.2071 14.1856 18.1466C14.2125 18.0682 14.3245 18.0189 14.2909 17.925C14.3403 17.9138 14.3626 17.9138 14.4859 17.7591C14.6025 17.6044 14.6742 17.5709 14.7638 17.5597C14.8535 17.5484 14.9073 17.5597 15.0732 17.405C15.1896 17.2952 15.1517 17.2011 15.1517 17.2011C15.1517 17.2011 15.2278 17.1764 15.201 17.0217L15.2009 17.022Z" fill="#CBAC5A"/>
<path fill-rule="evenodd" clip-rule="evenodd" d="M14.2215 17.0719C14.2259 17.0495 14.244 17.0382 14.365 17.0495C14.486 17.0607 15.2525 16.9778 15.4609 16.9666C15.6716 16.9509 16.4135 16.962 16.7744 17.0382C17.1353 17.1145 17.5006 17.2041 17.6776 17.2489C17.8549 17.2982 17.9107 17.316 17.9039 17.3384C17.8995 17.3609 17.8596 17.3827 17.8367 17.3765C17.8144 17.3721 17.2271 17.1928 17.0457 17.1549C16.8642 17.1171 16.2365 17.0159 15.8932 17.022C15.5728 17.0266 15.445 17.0175 15.1739 17.0489C14.9026 17.0825 14.4544 17.1273 14.3199 17.1094C14.1869 17.0938 14.2144 17.0938 14.2212 17.0713L14.2215 17.0719Z" fill="#D6BC6F"/>
<path fill-rule="evenodd" clip-rule="evenodd" d="M16.0257 18.8285C16.0257 18.8285 16.4852 19.0773 16.6511 19.3821C16.7721 19.6084 16.5794 19.7206 16.5794 19.7206C16.5794 19.7206 16.8395 19.7206 16.8058 19.864C16.7901 19.9535 16.3575 20.1955 16.0684 20.3233C15.7748 20.4511 15.7861 20.4445 15.6426 20.4668C15.5036 20.4893 15.1225 20.4225 15.0441 20.534C14.9656 20.6456 14.9998 20.7605 15.0216 20.7784C15.0441 20.794 15.2257 20.8165 15.2257 20.8165C15.2257 20.8165 15.1876 20.9218 14.8111 20.9331C14.4347 20.9443 14.3404 20.971 14.3179 21.0115C14.2955 21.0495 14.3896 21.0272 14.5623 21.0558C14.7349 21.0827 14.9769 21.1002 14.9769 21.1002C14.9769 21.1002 14.8984 21.1674 14.6945 21.2212C14.4614 21.2816 14.096 21.3377 13.9863 21.405C14.0423 21.4431 14.1253 21.4991 14.1636 21.5035C14.0694 21.526 13.9371 21.5753 13.9148 21.5932C13.9483 21.6156 13.9932 21.6425 13.9932 21.6425C13.9932 21.6425 13.8048 21.8689 13.6951 21.925C13.5853 21.9811 12.9532 22.2746 12.7358 22.2186C12.1934 22.0751 12.1262 21.4812 11.994 21.4364C11.7945 21.3692 11.7004 21.5035 11.5232 21.4094C11.6017 21.3534 11.6444 21.3199 11.7273 21.2817C11.6376 21.2374 11.1737 20.9433 11.1737 20.9433C11.1252 20.8375 11.0713 20.7343 11.0123 20.634C10.9227 20.4794 10.7907 20.2731 10.6917 20.0915C10.4766 19.6926 10.4654 19.5088 10.2704 19.2825C10.3041 19.2382 10.4205 19.2444 10.4205 19.2444L12.0545 19.7823L14.9519 19.8662L15.7054 18.7905L16.0258 18.8286L16.0257 18.8285Z" fill="#DFC677"/>
<path fill-rule="evenodd" clip-rule="evenodd" d="M11.7339 20.469C11.7514 20.4885 11.7718 20.5051 11.7943 20.5184C11.8505 20.5565 11.9333 20.6014 11.9893 20.6685C12.0118 20.635 12.0678 20.5744 12.1666 20.6685C12.2655 20.7626 12.3882 20.6955 12.4646 20.7178C12.5431 20.7449 12.5475 20.756 12.5475 20.756C12.5475 20.756 12.5918 20.7178 12.691 20.6775C12.7515 20.6551 12.8232 20.6394 12.9017 20.6171C12.9733 20.6014 13.0518 20.579 13.1057 20.579C13.155 20.6125 13.332 20.8006 14.0425 20.523C14.7127 20.2629 14.8672 20.2338 14.9794 20.274C14.9906 20.2471 15.0018 20.1956 15.1744 20.2024C15.1744 20.1307 15.0309 19.8863 15.0309 19.8863L14.2398 19.6152H13.807L12.5094 19.8528L11.7903 20.2631L11.7343 20.4699L11.7339 20.469Z" fill="#C4A859"/>
<path fill-rule="evenodd" clip-rule="evenodd" d="M11.301 20.0143C11.301 20.0143 11.3167 20.1353 11.496 20.2631C11.6733 20.3907 11.729 20.4669 11.729 20.4669C11.729 20.4669 11.7627 20.4226 11.7896 20.3774C11.8165 20.3281 11.839 20.2721 11.8837 20.2564C11.9734 20.2183 12.1773 20.2899 12.2222 20.2787C12.2603 20.2676 12.2491 20.1892 12.2894 20.1892C12.3835 20.1846 12.444 20.2496 12.4777 20.2496C12.5113 20.2496 12.5941 20.2452 12.6053 20.2273C12.6165 20.2094 12.621 20.0233 12.7488 19.9336C12.8878 19.835 13.0581 19.8776 13.1033 19.9001C13.1033 19.9336 13.1078 20.0166 13.1975 20.0211C13.2871 20.0255 13.296 20.0098 13.3748 20.0367C13.4535 20.0636 13.5473 20.0323 13.5899 20.1644C13.628 20.1533 13.7177 20.1421 13.6952 20.0143C13.7395 19.9807 13.7782 19.9583 13.8725 19.826C13.895 19.7925 13.9329 19.7544 13.9622 19.705C14.0406 19.705 14.1347 19.6894 14.2602 19.7991C14.2221 19.826 14.1996 19.8435 14.1885 19.8708C14.2213 19.9033 14.2513 19.9385 14.2781 19.9761C14.3117 20.0205 14.3342 20.0748 14.3767 20.0861C14.4709 20.113 14.6255 20.0748 14.7981 20.0861C14.964 20.0973 15.1029 20.1577 15.1635 20.1958C15.1859 20.1848 15.1859 20.1802 15.2419 20.1914C15.2979 20.2026 15.3405 20.2071 15.28 20.1354C15.3136 20.1511 15.3517 20.1848 15.3854 20.1511C15.4191 20.1174 15.4458 20.0682 15.5399 20.057C15.634 20.0457 15.6677 20.0614 15.7058 19.9628C15.7552 19.8418 15.5848 19.8418 15.5848 19.8418C15.5848 19.8418 15.6633 19.77 15.7508 19.6759C15.8561 19.5774 15.9771 19.4496 16.0062 19.2927C16.0556 19.0035 15.7732 18.9656 15.7732 18.9656L14.4038 19.3869L12.7296 19.3039L11.3019 20.0144L11.301 20.0143Z" fill="#927D49"/>
<path fill-rule="evenodd" clip-rule="evenodd" d="M10.0706 16.0585C10.0706 16.0585 10.0262 16.1145 9.9989 16.2467C9.97157 16.3789 9.98324 16.3633 9.96078 16.4574C9.93833 16.5515 9.66249 17.4884 9.76591 17.8044C9.86933 18.1204 10.0484 18.237 10.1604 18.4925C10.1828 18.5485 10.2047 18.5821 10.2164 18.6315C10.2545 18.7973 10.221 18.9251 10.2657 19.091C10.2814 19.147 10.3219 19.212 10.3823 19.2792C10.5153 19.4181 10.732 19.5503 10.8255 19.6444C10.9576 19.7835 11.146 20.066 11.3858 20.0927C11.5136 20.1084 11.6951 20.0546 11.8452 19.9651C11.9782 19.882 12.0604 19.7656 12.1998 19.6991C12.2984 19.6498 12.4037 19.6319 12.4978 19.6094C12.6928 19.5713 12.87 19.5651 12.9753 19.587C13.1367 19.6207 13.5177 19.7372 13.7288 19.7372C13.8938 19.7346 14.0578 19.712 14.2174 19.67C14.5378 19.5759 14.9255 19.4144 15.1811 19.3427C15.3312 19.2984 15.4522 19.2867 15.5756 19.2599C15.7863 19.2105 15.9633 19.1433 16.0642 19.0155C15.997 18.937 15.9141 18.816 15.4657 18.8205C14.957 18.8317 14.3697 19.114 14.0806 19.1589C13.7915 19.2039 13.666 19.2418 13.3432 19.1253C13.0267 19.0075 13.0162 18.9296 13.0162 18.9296C13.0162 18.9296 12.684 18.6972 12.5449 18.1048C12.4059 17.5123 12.5449 17.0806 12.9059 16.6703C13 16.565 12.9775 16.4708 12.9775 16.4708C12.9775 16.4708 13.2151 16.1504 13.1501 15.8503C13.0784 15.5521 12.619 15.6127 12.619 15.6127L10.0707 16.0585H10.0706Z" fill="#6E6342"/>
<path fill-rule="evenodd" clip-rule="evenodd" d="M10.4537 17.0557C10.434 17.0928 10.4247 17.1346 10.4268 17.1767C10.4313 17.2371 10.4493 17.3155 10.6307 17.4927C10.7854 17.6472 10.7517 17.8198 10.7517 17.8198C10.7517 17.8198 10.8296 17.8354 11.0408 17.7366C11.2068 17.6581 11.2625 17.7972 11.2625 17.7972C11.3108 17.7718 11.3631 17.7551 11.4171 17.7478C11.4661 17.7433 11.5135 17.7282 11.556 17.7035C11.556 17.7035 11.751 17.9029 11.9214 17.9971C12.0761 18.0801 12.1658 18.1361 12.242 18.0801C12.3136 18.0307 12.3136 17.9298 12.3091 17.8851C12.2913 17.8438 12.2688 17.8046 12.242 17.7685C12.1926 17.6968 12.1142 17.6138 12.109 17.5469C12.0978 17.3924 12.2256 17.2084 12.1986 17.1637C12.1715 17.1189 12.0709 17.1077 11.8221 17.1973C11.5644 17.2824 10.4527 17.0561 10.4527 17.0561L10.4537 17.0557Z" fill="#39331F"/>
<path fill-rule="evenodd" clip-rule="evenodd" d="M11.0411 18.0577C11.0411 18.0577 10.9135 17.9367 10.9582 17.3494C11.0124 17.3487 11.0665 17.3539 11.1195 17.3651C11.1195 17.3651 11.1891 17.8201 11.0411 18.0577Z" fill="#292311"/>
<path fill-rule="evenodd" clip-rule="evenodd" d="M10.1311 15.6101C10.1489 15.597 10.1655 15.5821 10.1805 15.5658C10.1361 15.6487 9.93152 15.9804 10.0974 16.5027C10.2634 17.0226 10.6801 17.4102 11.1934 17.4283C11.7067 17.4463 11.9764 17.1951 12.2849 16.8187C12.4059 16.6686 12.545 16.4802 12.6682 16.3525C12.852 16.1529 12.9954 16.097 12.9954 15.9043C12.9954 15.5098 12.5919 15.3327 11.998 15.1557C11.4041 14.9787 10.8684 15.0006 10.5905 15.1217C10.3194 15.2538 10.2028 15.3928 10.131 15.6103L10.1311 15.6101Z" fill="#252211"/>
<path fill-rule="evenodd" clip-rule="evenodd" d="M12.0383 18.2347L12.0826 18.2122C12.0826 18.2122 12.0937 18.0349 12.1655 18.0396C12.2371 18.0509 12.2708 18.1451 12.264 18.1787C12.2596 18.2122 12.2417 18.2684 12.1699 18.2616C12.0758 18.2638 12.0378 18.2347 12.0378 18.2347H12.0383Z" fill="#3F3824"/>
<path fill-rule="evenodd" clip-rule="evenodd" d="M11.8387 17.4816C11.8387 17.4816 11.8831 17.466 11.9373 17.5197C11.9816 17.5197 12.1749 17.4973 12.2354 17.5354C12.296 17.5735 12.3139 17.607 12.3139 17.607C12.3139 17.607 12.0875 17.6564 11.9642 17.607C11.8387 17.5645 11.8387 17.4816 11.8387 17.4816Z" fill="#2D2815"/>
<path fill-rule="evenodd" clip-rule="evenodd" d="M12.8365 17.5152C12.8365 17.504 12.7155 17.4211 12.5877 17.3941C12.5652 17.3896 12.5607 17.4053 12.5434 17.4053C12.5321 17.4009 12.5277 17.3672 12.5277 17.3672L12.455 17.4054C12.455 17.4054 12.4438 17.4211 12.4819 17.4498C12.5155 17.4766 12.5716 17.4991 12.5872 17.5438C12.6029 17.5886 12.6029 17.6043 12.6097 17.611C12.6141 17.6155 12.6926 17.611 12.7307 17.5886C12.7688 17.5661 12.8406 17.5295 12.836 17.5147L12.8365 17.5152Z" fill="#82764F"/>
<path fill-rule="evenodd" clip-rule="evenodd" d="M11.7048 17.9703C11.7048 17.9703 11.7271 17.8157 11.8774 17.8089C12.0319 17.7977 12.0612 17.9478 12.0612 17.9478L11.9715 18.0375C11.9715 18.0353 11.9043 17.9412 11.7056 17.9703H11.7048Z" fill="#2D2816"/>
<path fill-rule="evenodd" clip-rule="evenodd" d="M12.6797 17.3043C12.6797 17.3043 12.5967 17.394 12.413 17.4209C12.3974 17.3985 12.3637 17.3537 12.413 17.282C12.4624 17.2103 12.5184 17.1879 12.5744 17.2102C12.5991 17.2142 12.6221 17.2252 12.6408 17.2419C12.6595 17.2585 12.673 17.2802 12.6797 17.3043Z" fill="#574F35"/>
<path fill-rule="evenodd" clip-rule="evenodd" d="M13.0176 17.4143C13.0222 17.3919 13.0065 17.3874 13.0176 17.3762C13.0287 17.365 13.0894 17.3427 13.1006 17.3538C13.105 17.3583 13.1006 17.3762 13.1006 17.3981C13.1006 17.4199 13.1006 17.4424 13.0894 17.4585C13.0737 17.481 13.029 17.4922 13.0065 17.4855C12.984 17.4789 12.9796 17.4474 12.9796 17.4412C12.9907 17.4368 13.0176 17.4256 13.0176 17.4143ZM13.4002 17.1724C13.4002 17.1611 13.4384 17.1387 13.4608 17.1387C13.4944 17.1387 13.4944 17.1656 13.4989 17.1724C13.51 17.1768 13.51 17.1678 13.5212 17.188C13.5325 17.2083 13.5483 17.244 13.5369 17.2665C13.5255 17.2889 13.4809 17.3044 13.4698 17.3C13.4542 17.2888 13.4048 17.188 13.4002 17.1724Z" fill="#82764F"/>
<path fill-rule="evenodd" clip-rule="evenodd" d="M12.63 17.466C12.63 17.466 12.6794 17.477 12.7466 17.5332C12.7241 17.5489 12.6904 17.5667 12.6904 17.5667C12.6904 17.5667 12.686 17.5152 12.63 17.4658V17.466Z" fill="#6E6342"/>
<path fill-rule="evenodd" clip-rule="evenodd" d="M12.5202 16.9727C12.509 16.9617 12.5537 16.9348 12.5806 16.9392C12.6075 16.9436 12.6188 16.9617 12.6479 16.9661C12.677 16.9705 12.6815 16.9549 12.6922 16.9436C12.7028 16.9324 12.7415 16.9392 12.7482 16.9436C12.7523 16.9486 12.7561 16.9538 12.7594 16.9593C12.7599 16.9508 12.7621 16.9424 12.7659 16.9348C12.7698 16.9272 12.7752 16.9204 12.7817 16.915C12.7903 16.9086 12.8002 16.9044 12.8107 16.9024C12.8212 16.9005 12.832 16.9009 12.8423 16.9037C12.8467 16.9194 12.8692 16.9754 12.8648 16.9866C12.8603 16.9979 12.7931 17.0137 12.7817 17.0023C12.7929 17.0293 12.8423 17.0853 12.8489 17.0964C12.8556 17.1075 12.7996 17.1345 12.7773 17.1301C12.746 17.1279 12.5532 17.0157 12.5196 16.9732L12.5202 16.9727ZM12.8138 16.6007C12.8096 16.5894 12.8017 16.5799 12.7913 16.5738C12.7757 16.5694 12.7241 16.5738 12.7241 16.6007C12.7241 16.6276 12.7684 16.778 12.8182 16.8563C12.8744 16.9348 12.9123 16.9996 12.9504 17.0177C12.9624 17.0231 12.976 17.0238 12.9885 17.0196C13.001 17.0155 13.0114 17.0067 13.0177 16.9952C13.0221 16.984 13.0333 16.9011 13.0289 16.706C13.0245 16.511 13.0177 16.3228 13.0064 16.3115C12.9952 16.3003 12.9504 16.3004 12.9348 16.3228C12.9191 16.3451 12.8182 16.5671 12.8136 16.6007H12.8138Z" fill="#585136"/>
<path fill-rule="evenodd" clip-rule="evenodd" d="M12.6146 17.7484C12.6146 17.7484 12.5361 17.699 12.4599 17.7327C12.3882 17.7664 12.3926 17.8986 12.3926 17.8986C12.4088 17.9049 12.4262 17.9072 12.4434 17.9052C12.4606 17.9032 12.477 17.8971 12.4913 17.8873C12.5407 17.8538 12.6034 17.7978 12.6146 17.7485V17.7484Z" fill="#574F35"/>
<path fill-rule="evenodd" clip-rule="evenodd" d="M12.7622 17.9253C12.7578 17.881 12.7179 17.881 12.7179 17.8581C12.7206 17.8472 12.727 17.8375 12.7359 17.8305C12.7448 17.8236 12.7558 17.8199 12.7671 17.82C12.7896 17.82 12.8114 17.8469 12.8389 17.8643C12.8658 17.88 12.9061 17.9086 12.9106 17.9428C12.915 17.9769 12.8662 18.0704 12.812 18.0704C12.7578 18.0704 12.7739 17.9695 12.7627 17.9247L12.7622 17.9253ZM13.1948 17.8648C13.1948 17.8648 13.1051 17.8917 13.1118 17.8648C13.1184 17.8379 13.1388 17.8312 13.1679 17.8312C13.1827 17.8157 13.2026 17.8061 13.2239 17.8042C13.2361 17.8036 13.2481 17.8076 13.2575 17.8154C13.2575 17.8154 13.318 17.7885 13.3359 17.8042C13.3538 17.8198 13.3405 17.8198 13.3516 17.8379C13.3657 17.8579 13.3749 17.8809 13.3786 17.9051C13.3786 17.923 13.3114 17.9611 13.2575 17.9544C13.1948 17.941 13.2059 17.876 13.1948 17.8648ZM13.7169 17.7638C13.7169 17.7638 13.7438 17.7795 13.7215 17.7975C13.7059 17.8132 13.6274 17.8419 13.56 17.8469C13.4928 17.8469 13.4324 17.858 13.4324 17.8357C13.4324 17.8133 13.4884 17.7684 13.5219 17.7572C13.5286 17.7488 13.5372 17.742 13.5469 17.7373C13.5566 17.7327 13.5673 17.7303 13.5781 17.7303C13.6049 17.7303 13.7101 17.7191 13.7394 17.7146C13.7663 17.7101 13.7887 17.7257 13.7729 17.7482C13.7663 17.7638 13.7169 17.7638 13.7169 17.7638ZM13.8716 17.0718C13.8716 17.0718 13.8379 17.1434 13.8 17.1434C13.7618 17.139 13.7618 17.1278 13.7618 17.1166C13.7618 17.1009 13.8 17.0606 13.7954 17.0493C13.7843 17.0493 13.7573 17.0493 13.7618 17.0224C13.7618 17 13.8 16.9731 13.8335 16.9781C13.8588 16.9573 13.8904 16.9455 13.9232 16.9446C13.9613 16.9446 13.9948 16.9557 13.9948 16.9781C13.9948 17.0006 13.9505 17.0498 13.9343 17.0612C13.9164 17.079 13.8939 17.0907 13.8716 17.0722V17.0718ZM13.3606 18.3964C13.3606 18.3964 13.3163 18.4009 13.3163 18.4233C13.3163 18.4345 13.3273 18.4345 13.3431 18.4278C13.3523 18.4273 13.3613 18.4258 13.37 18.4233C13.3745 18.4278 13.3745 18.4501 13.4082 18.4501C13.4358 18.4464 13.4625 18.4373 13.4866 18.4233C13.5135 18.4122 13.536 18.4008 13.536 18.3789C13.5247 18.3408 13.5023 18.3228 13.4687 18.3228C13.4515 18.3217 13.4344 18.3256 13.4194 18.334C13.4194 18.334 13.4082 18.3116 13.37 18.334C13.3319 18.3565 13.3363 18.3565 13.3476 18.3677C13.3677 18.3856 13.361 18.3972 13.361 18.3972L13.3606 18.3964ZM13.1073 18.6295C13.1073 18.6183 13.1633 18.5958 13.179 18.6026C13.1947 18.6071 13.2394 18.6922 13.2394 18.7012C13.2394 18.7124 13.1834 18.7393 13.161 18.7393C13.1385 18.7393 13.1006 18.7012 13.1006 18.695C13.1006 18.6905 13.1274 18.6839 13.1274 18.6793C13.1341 18.6682 13.1073 18.6412 13.1073 18.63V18.6295ZM12.9301 18.3022C12.9413 18.2978 12.9413 18.2866 12.9569 18.2754C12.9618 18.2721 12.9674 18.27 12.9733 18.2692C12.9791 18.2685 12.985 18.269 12.9906 18.2709C12.9946 18.2639 13.0001 18.2578 13.0066 18.2531C13.0132 18.2484 13.0208 18.2453 13.0287 18.2439C13.0556 18.2395 13.0781 18.2439 13.0731 18.2551C13.0731 18.2888 13.0955 18.3111 13.0955 18.338C13.0955 18.3649 13.0799 18.3986 13.0239 18.421C12.9679 18.4367 12.8916 18.4367 12.8804 18.4323C12.8692 18.4278 12.858 18.3829 12.8692 18.3605C12.8804 18.338 12.9117 18.3135 12.9298 18.3022H12.9301Z" fill="#82764F"/>
<path fill-rule="evenodd" clip-rule="evenodd" d="M13.0016 18.3176C13.0016 18.3176 12.9635 18.3401 12.9635 18.3513C12.9601 18.3621 12.9586 18.3735 12.9591 18.3848C12.9591 18.3915 13.0084 18.3804 13.0151 18.3736C13.0173 18.3692 13.0016 18.3293 13.0016 18.3176Z" fill="#6E6342"/>
<path fill-rule="evenodd" clip-rule="evenodd" d="M12.668 18.2122C12.6903 18.2167 12.7284 18.2122 12.7575 18.2234C12.78 18.2346 12.7957 18.2571 12.7732 18.2839C12.7507 18.3108 12.7289 18.3511 12.6791 18.3443C12.6231 18.3399 12.5693 18.3108 12.5693 18.2884C12.5684 18.2742 12.5703 18.2599 12.5749 18.2465C12.5795 18.233 12.5868 18.2206 12.5962 18.2099C12.6187 18.1921 12.6297 18.2033 12.6679 18.2122H12.668Z" fill="#585136"/>
<path fill-rule="evenodd" clip-rule="evenodd" d="M12.6414 18.2346C12.6414 18.2346 12.5697 18.2906 12.5517 18.3177C12.5292 18.3445 12.4194 18.4834 12.3859 18.5125C12.397 18.4929 12.4097 18.4741 12.4239 18.4565C12.3796 18.4849 12.3463 18.5276 12.3298 18.5775C12.3029 18.6606 12.48 18.7053 12.5965 18.739C12.7129 18.7727 12.7579 18.7833 12.7579 18.7833C12.7151 18.7189 12.6783 18.6507 12.648 18.5795C12.6037 18.4741 12.5808 18.4629 12.6099 18.4135C12.6324 18.3642 12.666 18.3307 12.666 18.2925C12.6526 18.2571 12.6414 18.2346 12.6414 18.2346Z" fill="#574F35"/>
<path fill-rule="evenodd" clip-rule="evenodd" d="M10.086 18.4118C10.1023 18.4148 10.119 18.4148 10.1353 18.4118C10.1689 18.4072 10.5186 18.2788 10.8839 18.3018C11.1575 18.3184 11.4286 18.3629 11.693 18.4348C12.1525 18.5558 12.7239 18.7956 13.0937 18.9324C13.1923 18.9704 13.2888 19.0378 13.3597 19.0645C13.6422 19.1745 13.6532 19.1745 13.8191 19.2036C14.0142 19.2305 14.2136 19.1654 14.4221 19.1207C14.6775 19.0645 15.1146 19.0376 15.4978 18.9816C15.6217 18.9645 15.744 18.9367 15.8632 18.8988C15.8632 18.8988 15.5584 19.2036 14.8276 19.3133C14.5323 19.3582 14.2321 19.362 13.9357 19.3246C13.7026 19.3021 13.548 19.2684 13.4315 19.2349C13.2992 19.1968 13.028 19.0959 12.6941 19.0133C12.4609 18.9527 12.2009 18.9079 11.9029 18.8519C11.1678 18.7173 10.3699 18.5628 10.0857 18.4127L10.086 18.4118Z" fill="#252211"/>
<path fill-rule="evenodd" clip-rule="evenodd" d="M9.26116 17.0266C9.08387 17.1767 8.89579 17.3202 8.71215 17.4591L8.15855 17.8844C7.97033 18.0233 7.78654 18.1667 7.59817 18.3058C7.4098 18.4448 7.22172 18.5769 7.02197 18.7047C7.19926 18.5546 7.38734 18.4155 7.57556 18.2789C7.76379 18.1422 7.95895 18.0082 8.14053 17.8696L8.69412 17.4437C8.88456 17.3048 9.06835 17.1614 9.26116 17.0269V17.0266ZM8.28177 18.5955C8.28177 18.5955 8.48122 18.4296 8.73002 18.1966C9.03925 17.9076 9.41806 17.5377 9.53906 17.4706L8.28162 18.5956L8.28177 18.5955Z" fill="#CFB66C"/>
<path fill-rule="evenodd" clip-rule="evenodd" d="M8.28198 18.5955C8.38067 18.4969 8.48602 18.4006 8.59136 18.3063L8.75269 18.1675C8.80204 18.1231 8.85818 18.0733 8.90738 18.024C9.00592 17.9254 9.1024 17.82 9.20095 17.7192C9.24979 17.6685 9.30143 17.6206 9.35563 17.5757C9.38273 17.5518 9.41283 17.5314 9.44517 17.5152C9.4722 17.4995 9.50131 17.4708 9.53928 17.4658C9.51697 17.4995 9.49008 17.5152 9.46762 17.5443C9.44073 17.5667 9.41828 17.5936 9.39597 17.6159C9.34662 17.6653 9.29063 17.71 9.24128 17.755C9.13594 17.8446 9.02617 17.9322 8.92082 18.0261C8.81548 18.1199 8.71694 18.2211 8.61145 18.3152C8.49724 18.4117 8.3919 18.5058 8.28198 18.5959V18.5955ZM9.62231 17.699C9.62231 17.699 8.89172 18.414 8.74146 18.5305L9.62231 17.699Z" fill="#CFB66C"/>
<path fill-rule="evenodd" clip-rule="evenodd" d="M9.62242 17.699C9.5567 17.7751 9.48623 17.8469 9.41145 17.9141L9.18983 18.1248C9.11818 18.1964 9.0508 18.2682 8.97472 18.3399C8.89626 18.4071 8.82461 18.4729 8.74158 18.5349L8.95669 18.3242C9.02849 18.2526 9.10695 18.1921 9.18318 18.1203L9.3983 17.9097C9.47217 17.8358 9.54397 17.764 9.62242 17.699ZM9.65596 18.0867C9.58862 18.2746 9.50926 18.458 9.41839 18.6358C9.23016 19.0124 8.94783 19.483 8.82446 19.7229L9.65596 18.0867Z" fill="#CFB66C"/>
<path fill-rule="evenodd" clip-rule="evenodd" d="M9.6557 18.0867C9.6557 18.1696 9.63324 18.2414 9.60635 18.313C9.58014 18.3847 9.55026 18.455 9.51682 18.5237C9.48314 18.5909 9.44502 18.6627 9.4069 18.7277C9.36878 18.7927 9.32402 18.8598 9.29033 18.9272L9.06399 19.3261C8.98554 19.4591 8.9093 19.5928 8.82642 19.7206C8.88241 19.5771 8.95865 19.4427 9.03045 19.3104C9.1089 19.1775 9.18056 19.0445 9.25206 18.9069C9.28698 18.8384 9.31839 18.7681 9.34618 18.6964C9.37972 18.6246 9.41325 18.5574 9.44029 18.4924C9.47383 18.4207 9.50072 18.3533 9.5344 18.2885C9.57237 18.2189 9.60384 18.1517 9.6554 18.0867H9.6557Z" fill="#CFB66C"/>
<path fill-rule="evenodd" clip-rule="evenodd" d="M10.4537 19.9246C10.4537 19.9246 10.2321 20.2181 10.2542 20.5901C10.3147 20.3953 10.3909 20.0971 10.4537 19.9246ZM10.6644 20.2189C10.6644 20.2189 10.5859 21.0167 10.5209 21.4089C10.6128 20.9555 10.6307 20.9936 10.6644 20.2189ZM12.1323 21.4561C12.1323 21.4561 11.8007 22.4312 11.7939 22.7021C11.8657 22.4235 12.0045 21.8542 12.1323 21.4553V21.4561Z" fill="#DEC270"/>
<path fill-rule="evenodd" clip-rule="evenodd" d="M12.908 19.8643C12.908 19.8643 13.4459 20.7518 13.8494 21.5092C13.7402 21.1281 13.489 20.4289 12.908 19.8643Z" fill="#CBAF59"/>
<path fill-rule="evenodd" clip-rule="evenodd" d="M14.3539 21.1707C14.6492 21.6927 14.9156 22.2307 15.1517 22.7821C15.1069 22.4011 14.9858 21.7489 14.3539 21.1707Z" fill="#E3C677"/>
<path fill-rule="evenodd" clip-rule="evenodd" d="M18.6031 22.4792C18.6926 22.4232 18.8698 22.1182 19.0244 22.0422C19.179 21.9637 19.2956 21.948 19.4346 21.7934C19.5735 21.6319 19.6119 21.5333 19.9164 21.4057C20.3423 21.2217 20.0493 20.9842 20.0493 20.9842C20.0963 20.9381 20.1464 20.8954 20.1994 20.8565C20.3094 20.7736 20.437 20.6727 20.4259 20.4956C20.4103 20.1976 20.3543 19.765 20.1099 19.514C20.3475 19.4646 20.8024 19.4311 21.085 19.3594C21.4121 19.2764 21.5624 19.1598 21.5624 19.1598C21.5624 19.1598 21.3741 18.8394 21.6789 18.5167C21.9837 18.194 22.2325 18.0012 22.4163 17.6403C22.2056 17.6134 21.8844 17.5014 21.0648 17.8129C21.109 17.8337 21.1517 17.8576 21.1926 17.8845C21.1926 17.8845 20.6883 18.0235 20.5045 18.1782C20.1839 18.4493 20.1436 18.6712 19.7963 18.8372C19.4489 19.0031 19.0992 18.9582 18.8102 19.0926C18.5212 19.2271 18.4785 19.3414 18.373 19.3908C18.3955 19.4176 18.3686 19.4624 18.4112 19.5005C18.3843 19.5386 18.2274 19.7941 18.0683 19.7941C18.0839 19.8547 18.2184 19.8994 18.2184 19.8994C18.2184 19.8994 18.1198 19.9712 17.8688 19.9891C17.9965 20.1221 18.1176 20.267 18.4515 20.4777C18.4246 20.5337 18.3125 20.6167 18.3574 20.7221C18.4067 20.8274 18.5347 20.9709 19.0454 21.0874C18.7854 21.0985 18.4808 21.1591 18.0703 21.1031C17.6602 21.0538 17.593 21.0247 17.3397 21.0874C17.3666 21.1143 17.4383 21.1143 17.5011 21.186C17.4339 21.1904 17.0125 21.1366 16.869 21.325C16.7189 21.5199 16.6539 21.8405 16.6651 22.0556C16.5867 22.0937 16.5105 22.1609 16.5486 22.3C16.5867 22.439 16.7861 22.4838 16.9139 22.5711C17.0416 22.6652 17.0528 22.6987 17.174 22.6764C17.3016 22.6495 17.4898 22.5219 17.5998 22.5219C17.7097 22.5219 17.788 22.6048 17.788 22.6048C17.788 22.6048 18.0861 22.4613 18.1152 22.4882C18.1421 22.5151 18.1197 22.6877 18.1488 22.7145C18.1783 22.7348 18.5141 22.5353 18.6038 22.4792H18.6031Z" fill="#ECD592"/>
<path fill-rule="evenodd" clip-rule="evenodd" d="M25.1183 13.5102C23.7175 9.89282 20.2547 9.22266 20.2547 9.22266H10.3753L10.4134 12.9072H12.3809V21.1349H10.3751V24.8128H19.9812C22.2964 24.8128 24.1522 22.4863 24.1522 22.4863C27.1241 18.2684 25.1181 13.5102 25.1181 13.5102H25.1183ZM20.0328 20.0075C20.0328 20.0075 19.2793 21.0946 18.4595 21.0946H16.8195L16.7807 12.9162H18.8853C18.8853 12.9162 19.8604 13.1201 20.5416 15.0498C20.5416 15.0498 21.4448 17.8126 20.0328 20.0075Z" fill="white" fill-opacity="0.8"/>
</svg>
