<svg width="35" height="35" viewBox="0 0 35 35" fill="none" xmlns="http://www.w3.org/2000/svg">
<path d="M0 10C0 4.47715 4.47715 0 10 0H25C30.5228 0 35 4.47715 35 10V25C35 30.5228 30.5228 35 25 35H10C4.47715 35 0 30.5228 0 25V10Z" fill="#C0C0C0"/>
<path d="M16.4042 22.3249C19.7063 22.3872 22.9479 22.4478 26.25 22.5707C26.129 23.0606 26.0063 23.4882 25.9458 23.9175C25.7607 24.5303 25.5775 25.0825 25.4565 25.6953C25.3942 26.0017 25.2715 26.0623 24.9672 26.0623H9.18798C9.73952 23.9175 10.2893 21.8973 10.839 19.7524C9.98326 20.0589 9.24847 20.3653 8.3927 20.7322C8.63822 19.8148 8.88197 19.0185 9.18798 18.1598C9.18798 18.0387 9.37123 17.9763 9.49399 17.9763C10.0455 17.7323 10.6558 17.547 11.2055 17.3012C11.3888 17.2424 11.5738 17.0589 11.5738 16.8736L14.1393 7.31973C14.2016 6.95274 14.3226 6.82983 14.7514 6.82983H20.3166C19.644 9.33992 19.032 11.8535 18.3595 14.4865C19.338 14.0589 20.2561 13.6902 21.2951 13.3232C21.1723 13.8131 20.9891 14.2406 20.9286 14.67C20.8058 15.6515 20.2561 16.202 19.2775 16.4478C18.8505 16.569 18.42 16.7525 17.993 16.9377C17.8413 17.0284 17.7153 17.1546 17.6265 17.3047C17.1977 18.9579 16.7689 20.5505 16.4024 22.2037V22.3266L16.4042 22.3249Z" fill="white"/>
</svg>
