<svg width="35" height="35" viewBox="0 0 35 35" fill="none" xmlns="http://www.w3.org/2000/svg">
<path d="M0 10C0 4.47715 4.47715 0 10 0H25C30.5228 0 35 4.47715 35 10V25C35 30.5228 30.5228 35 25 35H10C4.47715 35 0 30.5228 0 25V10Z" fill="#EF0027"/>
<path d="M23.7329 11.1445L7.94788 8.2395L16.2549 29.1432L27.8301 15.0404L23.7329 11.1445ZM23.4791 12.4242L25.8941 14.72L19.2901 15.9154L23.4791 12.4242ZM17.8551 15.6759L10.8944 9.9031L22.2716 11.9965L17.8551 15.6759ZM17.3596 16.6975L16.2243 26.0818L10.1048 10.6786L17.3596 16.6964V16.6975ZM18.4096 17.1951L25.7235 15.8717L17.3344 26.0906L18.4096 17.1951Z" fill="white"/>
</svg>
