<svg width="35" height="35" viewBox="0 0 35 35" fill="none" xmlns="http://www.w3.org/2000/svg">
<path d="M0 10C0 4.47715 4.47715 0 10 0H25C30.5228 0 35 4.47715 35 10V25C35 30.5228 30.5228 35 25 35H10C4.47715 35 0 30.5228 0 25V10Z" fill="#F50000"/>
<path d="M7.84886 18.0844V21.5185C7.84886 22.1883 7.8888 22.6115 7.96869 22.788C8.05472 22.9585 8.20221 23.0955 8.41114 23.199C8.62623 23.3025 9.01645 23.3543 9.58181 23.3543V23.6922H3.23071V23.3543C3.80836 23.3543 4.19859 23.3025 4.40138 23.199C4.61032 23.0894 4.75473 22.9494 4.83462 22.7789C4.92065 22.6084 4.96367 22.1883 4.96367 21.5185V13.4813C4.96367 12.8116 4.92065 12.3914 4.83462 12.2209C4.75473 12.0444 4.61032 11.9043 4.40138 11.8008C4.19244 11.6973 3.80222 11.6455 3.23071 11.6455V11.3076H8.67846C10.4729 11.3076 11.7603 11.6242 12.5407 12.2575C13.3212 12.8907 13.7114 13.6822 13.7114 14.6321C13.7114 15.4358 13.4595 16.1239 12.9555 16.6962C12.4516 17.2686 11.7572 17.6582 10.8723 17.8653C10.2762 18.0114 9.2684 18.0844 7.84886 18.0844ZM7.84886 12.02V17.3721C8.05165 17.3842 8.20528 17.3903 8.30975 17.3903C9.05947 17.3903 9.63712 17.1711 10.0427 16.7327C10.4483 16.2883 10.6511 15.6033 10.6511 14.6778C10.6511 13.7584 10.4483 13.0855 10.0427 12.6593C9.63712 12.2331 9.03181 12.02 8.22679 12.02H7.84886Z" fill="white"/>
<path d="M23.2888 19.4727L26.6809 11.3076H31.7692V11.6455H31.3636C30.9949 11.6455 30.6999 11.7095 30.4787 11.8373C30.325 11.9226 30.2021 12.0657 30.11 12.2666C30.0424 12.4127 30.0086 12.7933 30.0086 13.4083V21.5733C30.0086 22.2066 30.0424 22.6023 30.11 22.7606C30.1776 22.919 30.3158 23.059 30.5248 23.1808C30.7337 23.2965 31.0133 23.3543 31.3636 23.3543H31.7692V23.6922H25.2429V23.3543H25.6485C26.0172 23.3543 26.3122 23.2904 26.5334 23.1625C26.6871 23.0773 26.81 22.9311 26.9021 22.7241C26.9697 22.578 27.0035 22.1944 27.0035 21.5733V12.3945L22.2103 23.6922H21.989L17.122 12.4767V21.1989C17.122 21.8077 17.1374 22.1822 17.1681 22.3223C17.248 22.6267 17.4201 22.8763 17.6843 23.0712C17.9547 23.2599 18.3756 23.3543 18.9471 23.3543V23.6922H14.6701V23.3543H14.7991C15.0756 23.3604 15.3337 23.3178 15.5734 23.2264C15.8131 23.129 15.9944 23.0012 16.1173 22.8428C16.2402 22.6845 16.3354 22.4623 16.403 22.1761C16.4153 22.1091 16.4215 21.7986 16.4215 21.2445V13.4083C16.4215 12.7811 16.3877 12.3914 16.3201 12.2392C16.2525 12.0809 16.1142 11.9439 15.9053 11.8282C15.6963 11.7064 15.4167 11.6455 15.0664 11.6455H14.6701V11.3076H19.7768L23.2888 19.4727Z" fill="white"/>
</svg>
