<svg width="35" height="35" viewBox="0 0 35 35" fill="none" xmlns="http://www.w3.org/2000/svg">
<path d="M0 10C0 4.47715 4.47715 0 10 0H25C30.5228 0 35 4.47715 35 10V25C35 30.5228 30.5228 35 25 35H10C4.47715 35 0 30.5228 0 25V10Z" fill="#50AF95"/>
<path d="M17.5859 7.40094C20.293 7.40094 22.8919 7.40094 25.599 7.40094C25.8156 7.40094 25.9239 7.51061 25.9239 7.62028C27.4399 11.0202 28.9559 14.3105 30.5801 17.6007C30.6884 17.7104 30.5801 17.82 30.4719 17.9297C28.631 19.7942 26.7901 21.6587 24.841 23.5231C22.4587 25.8263 19.9681 28.2392 17.5859 30.5423C17.3693 30.652 17.3693 30.652 17.261 30.5423C14.8787 28.2392 12.4964 25.936 10.1141 23.5231C8.27329 21.6587 6.32414 19.7942 4.48329 17.9297C4.375 17.82 4.375 17.7104 4.375 17.6007C5.133 15.8459 5.99928 14.2008 6.75728 12.446C7.51529 10.8009 8.27329 9.26541 9.03129 7.62028C9.13957 7.40093 9.24786 7.29126 9.57271 7.29126C12.2799 7.40093 14.8787 7.29126 17.5859 7.40094ZM17.6941 10.3622C15.745 10.3622 13.6876 10.3622 11.7384 10.3622C11.6301 10.3622 11.6301 10.3622 11.5219 10.3622C11.4136 10.3622 11.4136 10.3622 11.4136 10.4718C11.4136 11.4589 11.4136 12.446 11.3053 13.5427C11.3053 13.6524 11.3053 13.6524 11.4136 13.6524C11.7384 13.6524 12.0633 13.6524 12.3881 13.6524C13.471 13.6524 14.5539 13.6524 15.6367 13.6524C15.745 13.6524 15.745 13.6524 15.8533 13.6524C15.9616 13.6524 15.9616 13.7621 15.9616 13.8718C15.9616 14.3105 15.9616 14.8588 15.9616 15.2975C15.9616 15.4072 15.9616 15.4072 15.8533 15.5169C15.0953 15.6266 14.3373 15.6265 13.5793 15.7362C12.6047 15.8459 11.6301 16.0652 10.7639 16.3943C10.3307 16.5039 10.0059 16.7233 9.681 16.9426C9.35614 17.2717 9.35614 17.7104 9.681 17.9297C9.89757 18.1491 10.1141 18.2587 10.3307 18.3684C11.0887 18.6974 11.8467 18.8071 12.6047 19.0265C13.6876 19.2458 14.7704 19.3555 15.8533 19.4652C16.0699 19.4652 16.0699 19.4652 16.0699 19.6845C16.0699 21.6587 16.0699 23.7425 16.0699 25.7166C16.0699 25.936 16.0699 25.936 16.2864 25.936C17.261 25.936 18.3439 25.936 19.3184 25.936C19.6433 25.936 19.6433 25.936 19.6433 25.607C19.6433 23.9618 19.6433 22.4264 19.6433 20.7813C19.6433 20.3426 19.6433 19.9039 19.6433 19.4652C19.6433 19.2458 19.7516 19.2458 19.8599 19.2458C20.9427 19.2458 21.9173 19.1361 23.0001 18.9168C23.8664 18.8071 24.6244 18.5878 25.3824 18.2587C25.599 18.1491 25.8156 17.9297 26.0321 17.82C26.2487 17.6007 26.2487 17.3813 26.0321 17.162C25.8156 17.0523 25.7073 16.833 25.4907 16.7233C24.1913 15.9556 22.6753 15.6266 21.1593 15.5169C20.7261 15.5169 20.293 15.5169 19.8599 15.4072C19.7516 15.4072 19.7516 15.4072 19.7516 15.1878C19.7516 14.7492 19.7516 14.2008 19.7516 13.7621C19.7516 13.6524 19.7516 13.5427 19.9681 13.5427C20.293 13.5427 20.6179 13.5427 20.9427 13.5427C22.0256 13.5427 23.0001 13.5427 24.083 13.5427C24.2996 13.5427 24.2996 13.4331 24.2996 13.3234C24.2996 13.2137 24.2996 13.2137 24.2996 13.104C24.2996 12.2266 24.2996 11.3492 24.2996 10.3622C24.2996 10.1428 24.2996 10.1428 24.083 10.1428C21.7007 10.3622 19.6433 10.3622 17.6941 10.3622Z" fill="white"/>
<path d="M17.1523 18.6974C16.3943 18.6974 15.7446 18.6974 14.9866 18.5877C13.7954 18.478 12.496 18.3684 11.3049 17.9297C11.0883 17.82 10.8717 17.7103 10.5469 17.6006C10.222 17.3813 10.222 17.1619 10.5469 17.0523C10.98 16.8329 11.4132 16.7232 11.8463 16.6136C12.7126 16.3942 13.5789 16.2845 14.5534 16.1749C14.8783 16.1749 15.3114 16.0652 15.6363 16.0652C15.7446 16.0652 15.8529 16.0652 15.8529 16.2845C15.8529 16.9426 15.8529 17.491 15.8529 18.149C15.8529 18.3684 15.9612 18.3684 16.0694 18.3684C16.9357 18.3684 17.802 18.3684 18.56 18.3684C18.7766 18.3684 18.9932 18.3684 19.2097 18.3684C19.4263 18.3684 19.4263 18.3684 19.4263 18.149C19.4263 17.6006 19.4263 17.0523 19.4263 16.5039C19.4263 16.1749 19.4263 16.1749 19.7512 16.1749C21.1589 16.2845 22.5666 16.3942 23.9743 16.8329C24.1909 16.9426 24.5157 17.0523 24.7323 17.1619C24.9489 17.2716 24.9489 17.491 24.7323 17.6006C24.2992 17.9297 23.866 18.0393 23.3246 18.149C22.2417 18.3684 21.1589 18.5877 20.076 18.5877C19.2097 18.5877 18.1269 18.6974 17.1523 18.6974Z" fill="white"/>
</svg>
