<svg width="35" height="35" viewBox="0 0 35 35" fill="none" xmlns="http://www.w3.org/2000/svg">
<path d="M0 10C0 4.47715 4.47715 0 10 0H25C30.5228 0 35 4.47715 35 10V25C35 30.5228 30.5228 35 25 35H10C4.47715 35 0 30.5228 0 25V10Z" fill="black"/>
<path d="M25.8734 9.9636L23.0639 11.444L9.49685 18.5906C9.45098 18.2287 9.42789 17.8642 9.42775 17.4992C9.4296 16.043 9.79928 14.6126 10.5002 13.3496C11.201 12.0867 12.2088 11.035 13.4236 10.2987C14.6384 9.56251 16.0182 9.16727 17.4262 9.15218C18.8341 9.13709 20.2215 9.50267 21.4508 10.2127L23.0589 9.36533L23.2988 9.23873C21.8257 8.13293 20.0856 7.4699 18.2708 7.32292C16.4561 7.17594 14.6374 7.55072 13.0157 8.40586C11.3941 9.261 10.0326 10.5632 9.08181 12.1685C8.13101 13.7738 7.62791 15.6197 7.62809 17.5023C7.62809 17.7623 7.63764 18.0212 7.65672 18.2792C7.68345 18.6445 7.60511 19.0098 7.43156 19.3292C7.25801 19.6486 6.997 19.9077 6.68137 20.074L5.83337 20.5212V22.607L8.32999 21.291L9.1385 20.8642L9.93517 20.4446L24.2376 12.908L25.8448 12.0616L29.1667 10.3107V8.22595L25.8734 9.9636ZM29.1667 12.3975L10.7476 22.0965L9.14048 22.9449L5.83337 24.6877V26.7714L9.11777 25.0409L11.9273 23.5606L25.5082 16.4037C25.5541 16.768 25.5772 17.1349 25.5773 17.5023C25.5764 18.9601 25.2068 20.3924 24.5053 21.6569C23.8037 22.9214 22.7945 23.9742 21.578 24.7106C20.3614 25.4471 18.9797 25.8417 17.5701 25.8552C16.1605 25.8687 14.772 25.5007 13.5424 24.7877L13.4437 24.8418L11.7003 25.7607C13.1731 26.8665 14.9128 27.5298 16.7273 27.6771C18.5418 27.8244 20.3603 27.4501 21.9819 26.5956C23.6036 25.741 24.9653 24.4395 25.9165 22.8347C26.8677 21.23 27.3714 19.3845 27.372 17.5023C27.372 17.2399 27.3621 16.9775 27.3434 16.7182C27.3167 16.353 27.3949 15.9878 27.5683 15.6685C27.7416 15.3492 28.0024 15.0899 28.3177 14.9234L29.1667 14.4762V12.3975Z" fill="white"/>
</svg>
