<svg width="35" height="35" viewBox="0 0 35 35" fill="none" xmlns="http://www.w3.org/2000/svg">
<path d="M0 10C0 4.47715 4.47715 0 10 0H25C30.5228 0 35 4.47715 35 10V25C35 30.5228 30.5228 35 25 35H10C4.47715 35 0 30.5228 0 25V10Z" fill="black"/>
<path d="M32.0833 17.5319C32.08 25.6303 25.596 32.089 17.4747 32.0834C9.39603 32.0779 2.91217 25.5651 2.91663 17.4604C2.92105 9.39733 9.49006 2.90484 17.6317 2.91676C25.6048 2.92845 32.0865 9.48354 32.0833 17.5319ZM28.8712 17.3303C28.732 14.2369 27.7024 11.5249 25.4795 9.35487C22.5811 6.52541 19.0936 5.70918 15.205 6.34875C10.8282 7.06861 6.036 11.3521 6.13962 17.6968C6.23928 23.7993 11.236 28.8501 17.5145 28.8214C23.9279 28.7921 28.9722 23.5744 28.8712 17.3303Z" fill="#030302"/>
<path d="M28.8706 17.3306C28.9723 23.5744 23.928 28.7921 17.5146 28.8214C11.2361 28.85 6.23936 23.7993 6.13971 17.6967C6.0361 11.3521 10.8284 7.06859 15.2051 6.34873C19.0937 5.70915 22.5812 6.52539 25.4796 9.35485C27.7024 11.5248 28.732 14.2369 28.8706 17.3306Z" fill="#DEA038"/>
<path d="M15.9243 24.4534C14.5888 24.4534 13.3594 24.4534 12.1184 24.4534C11.8719 22.9844 12.0469 21.7147 13.0298 20.5268C14.7566 18.4395 16.1697 16.0997 18.0741 13.974C16.1548 13.974 14.3689 13.974 12.5406 13.974C12.5406 12.8214 12.5406 11.7329 12.5406 10.5644C13.6333 10.5644 14.7391 10.5644 15.9006 10.5644C15.9006 9.6861 15.9006 8.88554 15.9006 8.03931C16.9493 8.03931 17.9417 8.03931 19.0101 8.03931C19.0101 8.85638 19.0101 9.67215 19.0101 10.5509C20.2891 10.5509 21.4944 10.5509 22.7412 10.5509C22.7585 11.9403 22.8981 13.1892 21.9147 14.3926C20.202 16.4885 18.7771 18.8202 16.934 21.0044C19.0172 21.0044 20.9754 21.0044 22.9615 21.0044C22.9615 22.1764 22.9615 23.2682 22.9615 24.4262C21.6678 24.4262 20.3859 24.4262 19.0417 24.4262C19.0417 25.2715 19.0417 26.0525 19.0417 26.8754C17.983 26.8754 16.987 26.8754 15.9243 26.8754C15.9243 26.0943 15.9243 25.3139 15.9243 24.4534Z" fill="#030302"/>
</svg>
